<svg width="763" height="79" viewBox="0 0 763 79" fill="none" xmlns="http://www.w3.org/2000/svg">
<path d="M84.576 68.288C84.512 69.312 84.448 70.336 84.384 71.36C84.384 72.384 84.384 73.408 84.384 74.432L84.192 75.776C83.872 76.864 83.2 77.44 82.176 77.504L77.664 77.984C77.024 78.048 76.416 78.08 75.84 78.08C75.264 78.144 74.656 78.176 74.016 78.176H68.928C68.224 78.176 67.52 78.176 66.816 78.176C66.112 78.24 65.408 78.24 64.704 78.176C63.616 78.112 62.56 78.048 61.536 77.984C60.576 77.92 59.552 77.824 58.464 77.696C55.328 77.44 52.16 76.896 48.96 76.064C47.808 75.744 46.72 75.296 45.696 74.72C44.672 74.144 43.712 73.504 42.816 72.8C42.304 72.352 41.792 71.904 41.28 71.456C40.768 71.072 40.256 70.688 39.744 70.304L39.072 69.824C38.816 69.568 38.56 69.344 38.304 69.152C38.048 68.96 37.792 68.768 37.536 68.576C36.256 67.488 35.168 66.24 34.272 64.832C33.376 63.488 32.576 62.08 31.872 60.608C31.488 59.904 31.072 59.2 30.624 58.496C30.24 57.792 29.824 57.088 29.376 56.384C28.736 55.296 28.128 54.208 27.552 53.12C26.976 51.968 26.432 50.816 25.92 49.664C25.408 48.512 24.864 47.36 24.288 46.208C23.776 45.056 23.168 43.936 22.464 42.848C22.016 42.08 21.664 41.344 21.408 40.64C21.024 39.744 20.512 39.008 19.872 38.432C19.296 37.856 18.464 37.568 17.376 37.568C17.12 37.504 16.864 37.504 16.608 37.568C16.352 37.568 16.096 37.536 15.84 37.472C15.2 37.472 14.944 37.76 15.072 38.336C15.072 39.424 15.072 40.48 15.072 41.504C15.136 42.464 15.2 43.488 15.264 44.576C15.264 45.024 15.232 45.344 15.168 45.536C15.04 46.368 15.008 47.2 15.072 48.032C15.2 48.8 15.296 49.632 15.36 50.528C15.424 50.976 15.456 51.424 15.456 51.872C15.52 52.256 15.488 52.672 15.36 53.12C15.168 54.08 14.784 54.752 14.208 55.136C13.696 55.52 12.928 55.712 11.904 55.712L5.472 55.52C5.28 55.52 5.056 55.52 4.8 55.52C4.608 55.52 4.416 55.552 4.224 55.616C3.712 55.744 3.2 55.744 2.688 55.616C2.24 55.488 1.792 55.264 1.344 54.944C0.96 54.688 0.64 54.208 0.384 53.504C0.256 53.184 0.192 52.864 0.192 52.544C0.192 52.16 0.192 51.808 0.192 51.488C0.192 50.4 0.16 49.376 0.096 48.416C0.096 47.392 0.128 46.336 0.192 45.248C0.192 43.904 0.224 42.56 0.288 41.216C0.352 39.872 0.416 38.528 0.48 37.184C0.544 34.176 0.608 31.232 0.672 28.352C0.736 25.408 0.768 22.432 0.768 19.424C0.768 17.632 0.736 15.84 0.672 14.048C0.608 12.256 0.48 10.464 0.288 8.672C0.16 7.776 0.16 6.88 0.288 5.984C0.48 5.088 0.608 4.192 0.672 3.296C0.736 2.976 0.928 2.688 1.248 2.432C1.632 2.112 2.016 1.92 2.4 1.856L11.232 1.472C13.984 1.408 16.768 1.408 19.584 1.472C20.288 1.472 20.96 1.504 21.6 1.568C22.304 1.568 23.008 1.568 23.712 1.568C24.8 1.568 25.856 1.664 26.88 1.856C27.968 1.984 29.056 2.208 30.144 2.528C32.896 3.232 35.264 4.608 37.248 6.656C37.76 7.296 38.304 7.904 38.88 8.48C39.52 9.056 40.064 9.696 40.512 10.4C41.024 11.168 41.44 11.968 41.76 12.8C42.08 13.568 42.304 14.4 42.432 15.296C42.56 16.064 42.688 16.832 42.816 17.6C42.944 18.368 43.072 19.168 43.2 20C43.328 20.896 43.328 21.824 43.2 22.784C43.072 23.68 42.848 24.576 42.528 25.472C42.208 26.432 41.888 27.392 41.568 28.352C41.248 29.312 40.736 30.176 40.032 30.944C39.904 31.136 39.776 31.36 39.648 31.616C39.52 31.808 39.392 32.032 39.264 32.288C38.496 33.504 37.44 34.496 36.096 35.264L35.712 35.552L37.344 39.488C37.664 40.192 37.92 40.864 38.112 41.504C38.368 42.144 38.656 42.784 38.976 43.424C39.04 43.808 39.2 44.16 39.456 44.48C40.352 45.568 41.12 46.72 41.76 47.936C42.464 49.088 43.168 50.24 43.872 51.392C44.704 52.736 45.6 53.984 46.56 55.136C47.584 56.288 48.736 57.312 50.016 58.208C50.528 58.592 50.88 58.912 51.072 59.168C51.968 60.128 52.96 60.832 54.048 61.28C55.136 61.792 56.32 62.176 57.6 62.432C58.496 62.624 59.392 62.816 60.288 63.008C61.184 63.2 62.08 63.36 62.976 63.488C63.488 63.552 64.032 63.552 64.608 63.488C65.184 63.488 65.76 63.488 66.336 63.488C67.424 63.424 68.48 63.328 69.504 63.2C70.528 63.136 71.584 63.104 72.672 63.104C74.144 63.104 75.552 63.104 76.896 63.104C78.304 63.168 79.712 63.232 81.12 63.296C81.952 63.36 82.688 63.744 83.328 64.448C84.032 65.216 84.448 66.048 84.576 66.944V68.288ZM27.744 22.784C28.192 22.144 28.48 21.504 28.608 20.864C28.8 20.16 28.736 19.424 28.416 18.656C28.416 18.4 28.384 18.208 28.32 18.08C27.808 16.224 26.752 14.784 25.152 13.76C23.936 13.12 22.56 12.736 21.024 12.608C20.64 12.608 20.256 12.608 19.872 12.608C19.552 12.544 19.2 12.512 18.816 12.512C18.432 12.512 18.048 12.512 17.664 12.512C17.344 12.448 16.992 12.416 16.608 12.416C16.48 12.416 16.288 12.416 16.032 12.416C15.84 12.416 15.648 12.448 15.456 12.512C15.328 12.576 15.2 12.704 15.072 12.896C15.008 13.024 14.912 13.152 14.784 13.28C14.656 13.472 14.56 13.76 14.496 14.144C14.432 14.528 14.4 14.848 14.4 15.104C14.4 16 14.4 16.896 14.4 17.792C14.464 18.688 14.528 19.584 14.592 20.48C14.656 20.992 14.72 21.504 14.784 22.016C14.912 22.528 14.976 23.04 14.976 23.552C14.912 23.872 14.912 24.224 14.976 24.608C15.04 24.928 15.296 25.12 15.744 25.184C16 25.184 16.32 25.12 16.704 24.992C16.96 24.928 17.408 24.896 18.048 24.896C18.624 24.896 19.2 24.896 19.776 24.896C20.352 24.896 20.928 24.928 21.504 24.992C23.104 24.992 24.64 24.704 26.112 24.128C26.816 23.936 27.36 23.488 27.744 22.784ZM89.0183 43.232C89.6583 43.296 90.1703 43.552 90.5543 44C91.0023 44.448 91.2583 45.024 91.3223 45.728C91.4503 46.688 91.4823 47.648 91.4183 48.608C91.4183 49.568 91.4183 50.528 91.4183 51.488C91.4183 52 91.3543 52.48 91.2263 52.928C91.1623 53.312 91.0983 53.728 91.0343 54.176C90.9063 55.072 90.4583 55.616 89.6903 55.808C89.3703 55.936 89.0183 56 88.6343 56C88.3143 56.064 87.9943 56.128 87.6743 56.192L75.5782 56.576C73.2103 56.448 70.9703 56.352 68.8583 56.288C66.8103 56.288 64.7623 56.256 62.7143 56.192C61.8183 56.192 60.8903 56.16 59.9303 56.096C59.0343 56.096 58.1383 56.064 57.2422 56C56.9223 56 56.5703 56.032 56.1863 56.096C55.8663 56.16 55.5463 56.256 55.2263 56.384C54.5223 56.576 53.7863 56.48 53.0183 56.096C52.2503 55.776 51.6743 55.264 51.2903 54.56C50.8423 53.792 50.6182 52.992 50.6182 52.16C50.6822 50.88 50.7462 49.632 50.8102 48.416C50.8742 47.2 50.9703 45.952 51.0983 44.672C51.2263 43.328 51.3223 41.984 51.3863 40.64C51.5143 39.232 51.5783 37.856 51.5783 36.512C51.5783 34.848 51.5143 33.184 51.3863 31.52C51.3223 29.792 51.2583 28.096 51.1943 26.432C51.1303 24 51.0983 21.632 51.0983 19.328C51.1623 16.96 51.1943 14.56 51.1943 12.128C51.1943 11.808 51.1623 11.52 51.0983 11.264C51.0343 10.944 51.0343 10.624 51.0983 10.304C51.1623 9.472 51.2263 8.672 51.2903 7.904C51.3543 7.136 51.4503 6.336 51.5783 5.504C51.6423 4.928 51.9623 4.384 52.5383 3.872C53.1143 3.36 53.6903 3.072 54.2663 3.008C55.1623 2.88 56.0263 2.784 56.8583 2.72C57.7543 2.656 58.6503 2.592 59.5463 2.528C60.4423 2.528 61.3383 2.496 62.2343 2.432C63.1943 2.368 64.1223 2.368 65.0182 2.432C67.3223 2.56 69.6583 2.56 72.0263 2.432C73.4983 2.432 74.9383 2.496 76.3463 2.62399C77.8183 2.688 79.2903 2.72 80.7623 2.72C81.4023 2.784 82.0103 2.784 82.5863 2.72C83.1623 2.592 83.7703 2.528 84.4103 2.528C85.1143 2.528 85.8503 2.528 86.6183 2.528C87.3863 2.528 88.1223 2.592 88.8263 2.72C89.5303 2.784 90.1063 3.104 90.5543 3.68C91.0023 4.192 91.2583 4.8 91.3223 5.504C91.3863 7.232 91.3863 8.96 91.3223 10.688C91.3223 11.008 91.2903 11.36 91.2263 11.744C91.2263 12.128 91.1943 12.48 91.1303 12.8C91.0023 13.888 90.7143 14.624 90.2663 15.008C89.8183 15.392 89.0823 15.648 88.0583 15.776C87.0983 15.904 86.1063 15.968 85.0823 15.968C84.1223 15.904 83.1303 15.904 82.1063 15.968C80.7623 16.032 79.3863 16.128 77.9783 16.256C76.6343 16.32 75.2903 16.384 73.9463 16.448C73.6903 16.512 73.4663 16.544 73.2743 16.544C73.0823 16.48 72.8903 16.448 72.6983 16.448L67.2263 16.256C66.5223 16.256 65.9463 16.64 65.4983 17.408C65.1143 18.176 64.8583 18.976 64.7303 19.808C64.6023 20.576 64.5383 21.408 64.5383 22.304C64.6663 23.328 65.2743 23.936 66.3623 24.128C66.8103 24.256 67.2583 24.32 67.7063 24.32C68.1543 24.32 68.6023 24.32 69.0503 24.32C69.9463 24.32 70.8423 24.32 71.7383 24.32C72.6343 24.256 73.5303 24.192 74.4263 24.128L79.4183 23.936C79.8663 23.872 80.2823 23.808 80.6663 23.744C81.0503 23.68 81.4343 23.648 81.8183 23.648C83.5463 23.776 84.5063 24.672 84.6983 26.336C84.7623 26.848 84.7943 27.392 84.7943 27.968C84.8583 28.48 84.8903 28.992 84.8903 29.504C84.9543 29.824 84.9863 30.144 84.9863 30.464C85.0503 30.784 85.0823 31.104 85.0823 31.424C85.0823 31.744 85.0503 32.064 84.9863 32.384C84.9863 32.64 84.9543 32.928 84.8903 33.248C84.8263 33.696 84.4423 34.048 83.7383 34.304C82.8423 34.624 81.9463 34.816 81.0503 34.88C80.1543 34.944 79.2583 35.008 78.3623 35.072C77.0183 35.2 75.6423 35.264 74.2343 35.264C72.8903 35.264 71.5143 35.296 70.1063 35.36L67.0343 35.648C66.5223 35.712 66.0743 35.968 65.6903 36.416C65.3703 36.8 65.1783 37.248 65.1143 37.76C65.1143 38.272 65.0823 38.752 65.0182 39.2C64.9543 39.584 64.8903 40.032 64.8263 40.544C64.6983 41.248 64.8583 42.016 65.3063 42.848C65.4343 42.976 65.5943 43.072 65.7863 43.136C65.9783 43.2 66.1383 43.264 66.2663 43.328C66.7783 43.456 67.2263 43.456 67.6103 43.328C68.6343 43.136 69.6263 43.104 70.5863 43.232C71.5463 43.296 72.5063 43.36 73.4663 43.424C73.9143 43.488 74.3303 43.552 74.7143 43.616C75.0983 43.616 75.5143 43.616 75.9623 43.616C77.0503 43.616 78.1383 43.616 79.2263 43.616C80.3143 43.616 81.4023 43.584 82.4903 43.52C83.1943 43.52 83.8663 43.52 84.5063 43.52C85.1463 43.456 85.8183 43.392 86.5223 43.328C86.9703 43.264 87.3863 43.232 87.7703 43.232C88.2183 43.168 88.6343 43.168 89.0183 43.232ZM97.5113 52.928C97.1913 52.416 97.0633 51.936 97.1273 51.488C97.1913 50.976 97.2233 50.464 97.2233 49.952C97.1593 47.712 97.0953 45.504 97.0312 43.328C97.0312 41.088 97.0633 38.848 97.1273 36.608C97.1273 34.752 97.1593 32.896 97.2233 31.04C97.2873 29.184 97.3833 27.328 97.5113 25.472C97.5113 24.768 97.4793 24.096 97.4153 23.456C97.4153 22.752 97.4153 22.048 97.4153 21.344C97.4153 20.832 97.4153 20.352 97.4153 19.904C97.4793 19.392 97.5113 18.88 97.5113 18.368C97.5113 17.664 97.4793 16.992 97.4153 16.352C97.4153 15.648 97.4153 14.944 97.4153 14.24V6.08C97.4153 5.696 97.4153 5.312 97.4153 4.928C97.4153 4.544 97.4473 4.16 97.5113 3.776C97.5753 3.008 98.0873 2.56 99.0473 2.432L104.903 2.144C105.671 2.08 106.439 2.048 107.207 2.048C108.039 2.048 108.839 2.048 109.607 2.048C110.183 2.048 110.599 2.144 110.855 2.336C111.111 2.528 111.335 2.88 111.527 3.392C111.591 3.584 111.655 3.776 111.719 3.96799C111.783 4.16 111.815 4.352 111.815 4.544C111.751 5.504 111.751 6.464 111.815 7.424C111.879 8.384 111.943 9.312 112.007 10.208C112.007 11.872 111.975 13.568 111.911 15.296C111.847 16.96 111.783 18.624 111.719 20.288C111.655 21.568 111.591 22.848 111.527 24.128C111.527 25.408 111.527 26.688 111.527 27.968C111.527 28.544 111.559 29.12 111.623 29.696C111.687 30.272 111.719 30.848 111.719 31.424C111.719 32.576 111.719 33.888 111.719 35.36C111.719 36.832 111.751 38.176 111.815 39.392C111.815 39.84 111.847 40.288 111.911 40.736C111.975 41.184 112.039 41.664 112.103 42.176C112.167 42.944 112.583 43.328 113.351 43.328C116.039 43.456 118.727 43.36 121.415 43.04C122.311 42.912 123.207 42.912 124.103 43.04C125.063 43.168 125.991 43.232 126.887 43.232C127.591 43.232 128.487 43.2 129.575 43.136C130.727 43.008 131.687 43.008 132.455 43.136C133.031 43.264 133.319 43.488 133.319 43.808C133.319 44.064 133.351 44.544 133.415 45.248C133.479 45.632 133.511 46.016 133.511 46.4C133.575 46.784 133.607 47.168 133.607 47.552C133.607 48.256 133.575 48.832 133.511 49.28C133.511 49.728 133.543 50.304 133.607 51.008C133.607 51.648 133.575 52.288 133.511 52.928C133.447 53.504 133.159 54.048 132.647 54.56C132.327 55.008 131.911 55.264 131.399 55.328L127.655 55.712H124.967C123.623 55.712 122.279 55.744 120.935 55.808C119.591 55.808 118.279 55.776 116.999 55.712C115.271 55.584 113.511 55.552 111.719 55.616C109.991 55.616 108.295 55.68 106.631 55.808C105.479 55.936 104.327 55.968 103.175 55.904C102.023 55.84 100.871 55.808 99.7193 55.808C98.2473 55.808 97.5113 55.008 97.5113 53.408C97.5113 53.088 97.5113 52.928 97.5113 52.928ZM191.537 52.64C191.729 53.536 191.569 54.272 191.057 54.848C190.609 55.424 189.937 55.712 189.041 55.712C188.529 55.712 188.017 55.68 187.505 55.616C186.993 55.552 186.481 55.488 185.969 55.424L181.265 55.136C180.561 55.136 179.825 55.04 179.057 54.848C178.353 54.528 177.841 54.08 177.521 53.504C177.201 52.928 176.913 52.288 176.657 51.584C176.337 50.944 176.049 50.336 175.793 49.76C175.537 49.184 175.281 48.576 175.025 47.936C174.641 47.104 173.969 46.688 173.009 46.688C172.689 46.624 172.401 46.592 172.145 46.592C171.953 46.592 171.697 46.592 171.377 46.592C170.289 46.592 169.233 46.592 168.209 46.592C167.185 46.528 166.161 46.496 165.137 46.496C163.921 46.496 162.737 46.528 161.585 46.592C160.433 46.592 159.281 46.592 158.129 46.592C157.169 46.656 156.433 47.136 155.921 48.032C155.601 48.544 155.345 49.056 155.153 49.568C154.961 50.08 154.737 50.592 154.481 51.104C154.353 51.296 154.289 51.552 154.289 51.872C154.161 54.304 152.881 55.584 150.449 55.712C149.937 55.712 149.393 55.744 148.817 55.808C148.305 55.808 147.793 55.84 147.281 55.904C146.513 55.904 145.745 55.904 144.977 55.904C144.209 55.904 143.441 55.872 142.673 55.808C141.713 55.808 140.817 55.552 139.985 55.04C139.088 54.464 138.896 53.76 139.409 52.928C139.729 52.48 139.985 52.064 140.177 51.68C140.369 51.232 140.465 50.752 140.465 50.24V49.952C141.169 49.12 141.617 48.224 141.809 47.264C142.065 46.24 142.417 45.248 142.865 44.288C143.569 42.688 144.241 41.088 144.881 39.488C145.521 37.888 146.129 36.288 146.705 34.688C147.345 32.896 147.953 31.136 148.529 29.408C149.105 27.616 149.681 25.824 150.257 24.032C150.641 22.88 151.025 21.728 151.409 20.576C151.793 19.424 152.273 18.304 152.849 17.216C153.617 15.744 154.289 14.24 154.865 12.704C155.505 11.104 156.113 9.536 156.689 8C157.009 7.104 157.393 6.24 157.841 5.408C158.289 4.512 158.897 3.712 159.665 3.008C160.113 2.688 160.529 2.464 160.913 2.336C161.361 2.208 161.809 2.08 162.257 1.952C162.705 1.888 163.121 1.856 163.505 1.856C163.889 1.856 164.273 1.856 164.656 1.856C165.297 1.856 165.905 1.856 166.481 1.856C167.057 1.856 167.633 1.824 168.209 1.76C170.001 1.504 171.281 2.176 172.049 3.776C172.497 4.672 172.881 5.568 173.201 6.464C173.585 7.296 173.937 8.16 174.257 9.056C175.153 11.232 175.985 13.408 176.753 15.584C177.585 17.76 178.417 19.936 179.249 22.112C179.633 23.072 179.985 24.032 180.305 24.992C180.625 25.952 180.945 26.88 181.265 27.776C181.777 29.056 182.289 30.336 182.801 31.616C183.313 32.896 183.825 34.176 184.337 35.456L190.673 50.336C191.057 51.104 191.345 51.872 191.537 52.64ZM161.393 34.208C161.585 34.208 161.777 34.176 161.969 34.112C162.225 33.984 162.449 33.984 162.641 34.112C163.153 34.304 163.665 34.4 164.177 34.4C164.689 34.336 165.201 34.336 165.713 34.4C166.225 34.464 166.737 34.496 167.249 34.496C167.825 34.432 168.369 34.368 168.881 34.304C169.265 34.24 169.489 34.144 169.553 34.016C169.681 33.888 169.681 33.6 169.553 33.152C169.489 32.832 169.393 32.512 169.265 32.192C169.201 31.808 169.105 31.456 168.977 31.136L165.809 21.728L165.425 21.056L161.393 34.208ZM184.88 12.608C184.88 12.416 184.848 12.224 184.784 12.032C184.784 11.776 184.816 11.584 184.88 11.456C185.072 10.624 185.136 9.728 185.072 8.768C185.008 7.808 184.944 6.912 184.88 6.08V5.312C184.816 4.672 184.88 3.968 185.072 3.2C185.328 2.432 185.808 1.952 186.512 1.76C187.088 1.568 187.664 1.536 188.24 1.664C188.88 1.728 189.488 1.792 190.064 1.856C190.768 1.856 191.504 1.888 192.272 1.952C193.04 1.952 193.776 1.952 194.48 1.952H207.056C208.848 1.952 210.64 1.984 212.432 2.048C214.224 2.048 216.016 1.984 217.808 1.856C218.704 1.792 219.568 1.792 220.4 1.856C221.296 1.92 222.192 1.984 223.088 2.048C223.664 2.048 224.368 2.016 225.2 1.952C226.096 1.824 226.768 2.016 227.216 2.528C227.536 2.912 227.696 3.392 227.696 3.96799C227.76 4.48 227.824 4.992 227.888 5.504C227.952 6.208 227.952 7.04 227.888 8C227.824 8.96 227.792 9.824 227.792 10.592L227.6 12.8C227.536 13.44 227.248 13.984 226.736 14.432C226.288 14.816 225.744 15.04 225.104 15.104L219.92 15.488C219.28 15.552 218.64 15.584 218 15.584C217.36 15.584 216.72 15.584 216.08 15.584C215.504 15.52 214.992 15.552 214.544 15.68C214.16 15.808 213.904 16.192 213.776 16.832C213.648 17.216 213.616 17.6 213.68 17.984C213.808 18.304 213.872 18.656 213.872 19.04C213.872 19.744 213.808 20.416 213.68 21.056C213.616 21.632 213.616 22.272 213.68 22.976C213.808 24.448 213.84 25.824 213.776 27.104C213.776 28.384 213.712 29.76 213.584 31.232C213.52 32.384 213.488 33.536 213.488 34.688C213.488 35.84 213.488 36.96 213.488 38.048V44.384C213.488 45.28 213.52 46.208 213.584 47.168C213.648 48.128 213.68 49.056 213.68 49.952C213.68 50.464 213.648 51.008 213.584 51.584C213.584 52.16 213.552 52.704 213.488 53.216C213.424 53.856 213.072 54.432 212.432 54.944C211.856 55.456 211.216 55.776 210.512 55.904H208.88C207.856 55.968 206.832 56 205.808 56C204.848 56.064 203.856 56.096 202.832 56.096C202.128 56.096 201.456 56 200.816 55.808C199.792 55.552 199.248 54.912 199.184 53.888C199.184 52.416 199.12 51.008 198.992 49.664C198.928 48.32 198.96 46.912 199.088 45.44C199.216 43.2 199.248 40.928 199.184 38.624C199.184 36.32 199.216 34.048 199.28 31.808V19.328C199.28 18.816 199.312 18.272 199.376 17.696C199.504 17.056 199.472 16.512 199.28 16.064C199.152 15.744 198.896 15.616 198.512 15.68C198.192 15.68 197.872 15.68 197.552 15.68C195.824 15.68 194.096 15.648 192.368 15.584C190.64 15.456 188.912 15.328 187.184 15.2C186.544 15.072 186 14.784 185.552 14.336C185.168 13.824 184.944 13.248 184.88 12.608ZM271.643 43.232C272.283 43.296 272.795 43.552 273.179 44C273.627 44.448 273.883 45.024 273.947 45.728C274.075 46.688 274.107 47.648 274.043 48.608C274.043 49.568 274.043 50.528 274.043 51.488C274.043 52 273.979 52.48 273.851 52.928C273.787 53.312 273.723 53.728 273.659 54.176C273.531 55.072 273.083 55.616 272.315 55.808C271.995 55.936 271.643 56 271.259 56C270.939 56.064 270.619 56.128 270.299 56.192L258.203 56.576C255.835 56.448 253.595 56.352 251.483 56.288C249.435 56.288 247.387 56.256 245.339 56.192C244.443 56.192 243.515 56.16 242.555 56.096C241.659 56.096 240.763 56.064 239.867 56C239.547 56 239.195 56.032 238.811 56.096C238.491 56.16 238.171 56.256 237.851 56.384C237.147 56.576 236.411 56.48 235.643 56.096C234.875 55.776 234.299 55.264 233.915 54.56C233.467 53.792 233.243 52.992 233.243 52.16C233.307 50.88 233.371 49.632 233.435 48.416C233.499 47.2 233.595 45.952 233.723 44.672C233.851 43.328 233.947 41.984 234.011 40.64C234.139 39.232 234.203 37.856 234.203 36.512C234.203 34.848 234.139 33.184 234.011 31.52C233.947 29.792 233.883 28.096 233.819 26.432C233.755 24 233.723 21.632 233.723 19.328C233.787 16.96 233.819 14.56 233.819 12.128C233.819 11.808 233.787 11.52 233.723 11.264C233.659 10.944 233.659 10.624 233.723 10.304C233.787 9.472 233.851 8.672 233.915 7.904C233.979 7.136 234.075 6.336 234.203 5.504C234.267 4.928 234.587 4.384 235.163 3.872C235.739 3.36 236.315 3.072 236.891 3.008C237.787 2.88 238.651 2.784 239.483 2.72C240.379 2.656 241.275 2.592 242.171 2.528C243.067 2.528 243.963 2.496 244.859 2.432C245.819 2.368 246.747 2.368 247.643 2.432C249.947 2.56 252.283 2.56 254.651 2.432C256.123 2.432 257.563 2.496 258.971 2.62399C260.443 2.688 261.915 2.72 263.387 2.72C264.027 2.784 264.635 2.784 265.211 2.72C265.787 2.592 266.395 2.528 267.035 2.528C267.739 2.528 268.475 2.528 269.243 2.528C270.011 2.528 270.747 2.592 271.451 2.72C272.155 2.784 272.731 3.104 273.179 3.68C273.627 4.192 273.883 4.8 273.947 5.504C274.011 7.232 274.011 8.96 273.947 10.688C273.947 11.008 273.915 11.36 273.851 11.744C273.851 12.128 273.819 12.48 273.755 12.8C273.627 13.888 273.339 14.624 272.891 15.008C272.443 15.392 271.707 15.648 270.683 15.776C269.723 15.904 268.731 15.968 267.707 15.968C266.747 15.904 265.755 15.904 264.731 15.968C263.387 16.032 262.011 16.128 260.603 16.256C259.259 16.32 257.915 16.384 256.571 16.448C256.315 16.512 256.091 16.544 255.899 16.544C255.707 16.48 255.515 16.448 255.323 16.448L249.851 16.256C249.147 16.256 248.571 16.64 248.123 17.408C247.739 18.176 247.483 18.976 247.355 19.808C247.227 20.576 247.163 21.408 247.163 22.304C247.291 23.328 247.899 23.936 248.987 24.128C249.435 24.256 249.883 24.32 250.331 24.32C250.779 24.32 251.227 24.32 251.675 24.32C252.571 24.32 253.467 24.32 254.363 24.32C255.259 24.256 256.155 24.192 257.051 24.128L262.043 23.936C262.491 23.872 262.907 23.808 263.291 23.744C263.675 23.68 264.059 23.648 264.443 23.648C266.171 23.776 267.131 24.672 267.323 26.336C267.387 26.848 267.419 27.392 267.419 27.968C267.483 28.48 267.515 28.992 267.515 29.504C267.579 29.824 267.611 30.144 267.611 30.464C267.675 30.784 267.707 31.104 267.707 31.424C267.707 31.744 267.675 32.064 267.611 32.384C267.611 32.64 267.579 32.928 267.515 33.248C267.451 33.696 267.067 34.048 266.363 34.304C265.467 34.624 264.571 34.816 263.675 34.88C262.779 34.944 261.883 35.008 260.987 35.072C259.643 35.2 258.267 35.264 256.859 35.264C255.515 35.264 254.139 35.296 252.731 35.36L249.659 35.648C249.147 35.712 248.699 35.968 248.315 36.416C247.995 36.8 247.803 37.248 247.739 37.76C247.739 38.272 247.707 38.752 247.643 39.2C247.579 39.584 247.515 40.032 247.451 40.544C247.323 41.248 247.483 42.016 247.931 42.848C248.059 42.976 248.219 43.072 248.411 43.136C248.603 43.2 248.763 43.264 248.891 43.328C249.403 43.456 249.851 43.456 250.235 43.328C251.259 43.136 252.251 43.104 253.211 43.232C254.171 43.296 255.131 43.36 256.091 43.424C256.539 43.488 256.955 43.552 257.339 43.616C257.723 43.616 258.139 43.616 258.587 43.616C259.675 43.616 260.763 43.616 261.851 43.616C262.939 43.616 264.027 43.584 265.115 43.52C265.819 43.52 266.491 43.52 267.131 43.52C267.771 43.456 268.443 43.392 269.147 43.328C269.595 43.264 270.011 43.232 270.395 43.232C270.843 43.168 271.259 43.168 271.643 43.232ZM325.832 20.864C326.216 21.568 326.44 22.304 326.504 23.072C326.632 23.776 326.664 24.512 326.6 25.28C326.6 25.728 326.568 26.368 326.504 27.2C326.504 27.968 326.504 28.576 326.504 29.024C326.632 30.688 326.472 32.288 326.024 33.824C325.64 35.36 325.128 36.896 324.488 38.432C324.232 39.136 323.944 39.808 323.624 40.448C323.304 41.088 322.984 41.728 322.664 42.368C322.344 42.88 322.024 43.424 321.704 44C321.384 44.512 321.064 45.024 320.744 45.536C319.784 46.88 318.664 48.064 317.384 49.088C316.168 50.112 314.92 51.072 313.64 51.968C311.272 53.44 308.648 54.336 305.768 54.656C304.808 54.784 303.848 54.912 302.888 55.04C301.928 55.104 300.968 55.2 300.008 55.328C297.768 55.712 295.336 55.84 292.712 55.712C291.624 55.584 290.504 55.52 289.352 55.52C288.264 55.52 287.176 55.552 286.088 55.616C284.488 55.744 283.048 55.52 281.768 54.944C281.256 54.752 280.872 54.336 280.616 53.696C280.488 53.248 280.392 52.832 280.328 52.448C280.264 52 280.2 51.552 280.136 51.104C280.136 50.272 280.136 49.472 280.136 48.704C280.2 47.936 280.264 47.136 280.328 46.304C280.392 44.896 280.424 43.616 280.424 42.464C280.424 41.248 280.392 40.064 280.328 38.912C280.328 37.76 280.296 36.608 280.232 35.456C280.232 34.24 280.232 32.928 280.232 31.52C280.168 30.176 280.136 28.704 280.136 27.104C280.2 25.44 280.232 23.776 280.232 22.112C280.232 20.384 280.2 18.72 280.136 17.12C280.136 15.52 280.072 14.048 279.944 12.704C279.752 11.232 279.624 9.792 279.56 8.384C279.496 6.912 279.592 5.43999 279.848 3.96799C279.976 3.64799 280.264 3.232 280.712 2.72C281.16 2.208 281.576 1.92 281.96 1.856C282.792 1.664 283.656 1.568 284.552 1.568C286.728 1.632 288.872 1.664 290.984 1.664C293.096 1.664 295.24 1.728 297.416 1.856C299.208 1.984 300.968 2.144 302.696 2.336C304.488 2.528 306.248 2.72 307.976 2.912C308.424 2.976 308.84 3.008 309.224 3.008C309.672 3.008 310.088 3.104 310.472 3.296C311.368 3.744 312.264 4.224 313.16 4.736C314.056 5.248 314.856 5.888 315.56 6.656C316.328 7.488 317.096 8.288 317.864 9.056C318.696 9.824 319.528 10.592 320.36 11.36C321.896 12.704 323.176 14.464 324.2 16.64C324.52 17.344 324.776 18.048 324.968 18.752C325.224 19.456 325.512 20.16 325.832 20.864ZM312.104 34.112C312.936 32.832 313.416 31.36 313.544 29.696C313.672 28.032 313.576 26.464 313.256 24.992C313.064 24.288 312.84 23.616 312.584 22.976C312.328 22.336 311.976 21.696 311.528 21.056C310.824 19.904 309.928 19.008 308.84 18.368C307.816 17.664 306.728 17.024 305.576 16.448C304.68 15.936 303.56 15.584 302.216 15.392C300.936 15.136 299.656 15.04 298.376 15.104C297.992 14.976 297.576 15.008 297.128 15.2C296.744 15.328 296.328 15.456 295.88 15.584C295.624 15.712 295.4 15.968 295.208 16.352C295.016 16.672 294.952 16.992 295.016 17.312C295.4 19.104 295.528 21.056 295.4 23.168C295.336 25.28 295.368 27.232 295.496 29.024C295.624 31.008 295.592 32.96 295.4 34.88C295.272 36.8 295.144 38.72 295.016 40.64C294.952 41.28 295.272 41.664 295.976 41.792H296.168C299.496 41.792 302.504 41.248 305.192 40.16C307.944 39.008 310.248 36.992 312.104 34.112ZM401.068 27.872C400.428 29.408 399.436 30.72 398.092 31.808C396.748 32.896 395.244 33.792 393.58 34.496C391.916 35.2 390.188 35.712 388.396 36.032C386.668 36.288 385.036 36.416 383.5 36.416C383.116 36.416 382.7 36.416 382.252 36.416C381.868 36.352 381.484 36.32 381.1 36.32C380.46 36.256 379.82 36.224 379.18 36.224C378.604 36.224 377.996 36.224 377.356 36.224C377.1 36.224 376.876 36.352 376.684 36.608C376.492 36.864 376.364 37.12 376.3 37.376C376.3 37.568 376.268 38.08 376.204 38.912C376.14 39.68 376.076 40.512 376.012 41.408C375.948 42.24 375.884 43.008 375.82 43.712C375.82 44.416 375.852 44.768 375.916 44.768V53.792C375.916 53.984 375.916 54.208 375.916 54.464C375.916 54.656 375.852 54.848 375.724 55.04C375.404 55.616 374.86 55.904 374.092 55.904H363.436C362.796 55.904 362.348 55.808 362.092 55.616C361.9 55.424 361.772 55.008 361.708 54.368C361.58 52.128 361.484 50.272 361.42 48.8C361.42 47.264 361.42 45.952 361.42 44.864C361.484 43.712 361.548 42.656 361.612 41.696C361.676 40.736 361.74 39.712 361.804 38.624C361.868 37.536 361.9 36.256 361.9 34.784C361.9 33.312 361.868 31.488 361.804 29.312C361.804 29.248 361.804 28.416 361.804 26.816C361.804 25.152 361.804 23.328 361.804 21.344C361.868 19.36 361.9 17.568 361.9 15.968C361.9 14.304 361.9 13.44 361.9 13.376L361.708 4.064C361.58 3.04 361.932 2.272 362.764 1.76C362.956 1.632 363.308 1.504 363.82 1.376C363.948 1.376 364.076 1.408 364.204 1.472C364.332 1.472 364.46 1.472 364.588 1.472C367.276 1.472 369.9 1.504 372.46 1.568C375.02 1.568 377.644 1.568 380.332 1.568C380.908 1.568 381.452 1.536 381.964 1.472C382.54 1.408 383.116 1.376 383.692 1.376C385.42 1.248 387.116 1.312 388.78 1.568C390.508 1.76 392.172 2.272 393.772 3.104L396.46 4.544C397.292 4.992 398.092 5.664 398.86 6.56C399.628 7.392 400.3 8.32 400.876 9.344C401.516 10.304 402.028 11.328 402.412 12.416C402.86 13.504 403.148 14.464 403.276 15.296C403.532 16.96 403.66 18.272 403.66 19.232C403.724 20.192 403.66 21.088 403.468 21.92C403.34 22.688 403.052 23.52 402.604 24.416C402.22 25.312 401.708 26.464 401.068 27.872ZM375.628 14.048C375.5 15.84 375.436 17.632 375.436 19.424C375.5 21.152 375.724 22.944 376.108 24.8C376.492 24.8 376.844 24.832 377.164 24.896C377.548 24.896 377.9 24.896 378.22 24.896C379.308 24.96 380.396 24.992 381.484 24.992C382.636 24.992 383.756 24.832 384.844 24.512C385.1 24.384 385.324 24.32 385.516 24.32C385.772 24.256 385.996 24.16 386.188 24.032C387.276 22.944 388.044 21.888 388.492 20.864C388.94 19.776 388.812 18.496 388.108 17.024C387.596 16 386.956 15.168 386.188 14.528C385.42 13.824 384.396 13.504 383.116 13.568L378.22 13.76C377.9 13.824 377.42 13.824 376.78 13.76C376.14 13.696 375.756 13.792 375.628 14.048ZM453.198 53.504C453.262 54.336 452.974 54.848 452.334 55.04C451.886 55.168 451.438 55.296 450.99 55.424C450.606 55.552 450.158 55.584 449.646 55.52C448.558 55.52 447.502 55.52 446.478 55.52C445.454 55.456 444.398 55.392 443.31 55.328L439.758 55.136C439.31 55.136 438.926 54.976 438.606 54.656C437.006 52.864 435.822 50.816 435.054 48.512C434.926 48.32 434.83 48.096 434.766 47.84C434.702 47.584 434.606 47.36 434.478 47.168C434.35 47.104 434.222 46.944 434.094 46.688C432.814 44.832 431.662 42.848 430.638 40.736C430.51 40.416 430.414 40.096 430.35 39.776C430.286 39.456 430.126 39.168 429.87 38.912C429.55 38.528 429.134 38.304 428.622 38.24C428.174 38.112 427.694 38.048 427.182 38.048L424.782 38.24C424.27 38.24 423.982 38.368 423.918 38.624C423.918 38.816 423.95 39.136 424.014 39.584C424.078 40.096 424.078 40.64 424.014 41.216C423.95 41.792 423.918 42.336 423.918 42.848C423.918 43.424 423.886 44 423.822 44.576C423.822 45.152 423.822 45.728 423.822 46.304C423.758 47.392 423.726 48.448 423.726 49.472C423.726 50.496 423.726 51.552 423.726 52.64C423.726 53.408 423.502 54.048 423.054 54.56C422.67 55.008 422.062 55.232 421.23 55.232C419.63 55.296 418.03 55.328 416.43 55.328C414.83 55.264 413.198 55.232 411.534 55.232C411.022 55.168 410.574 55.008 410.19 54.752C409.87 54.496 409.55 54.208 409.23 53.888L409.038 53.216C408.91 51.68 408.846 50.176 408.846 48.704C408.846 47.168 408.91 45.632 409.038 44.096C409.23 42.496 409.294 40.928 409.23 39.392C409.166 37.792 409.198 36.192 409.326 34.592L409.71 30.272C409.774 29.568 409.806 28.864 409.806 28.16C409.806 27.456 409.806 26.752 409.806 26.048C409.806 24.832 409.774 23.616 409.71 22.4C409.71 21.184 409.71 19.968 409.71 18.752C409.646 17.984 409.582 17.216 409.518 16.448C409.518 15.68 409.518 14.912 409.518 14.144C409.454 13.056 409.422 11.968 409.422 10.88C409.486 9.792 409.518 8.704 409.518 7.616C409.518 7.36 409.518 7.136 409.518 6.944C409.582 6.688 409.582 6.432 409.518 6.17599C409.39 5.472 409.422 4.832 409.614 4.256C409.806 3.616 410.03 2.976 410.286 2.336C410.606 1.824 411.15 1.568 411.918 1.568L416.238 1.76C417.966 1.76 419.662 1.792 421.326 1.856C423.054 1.856 424.782 1.856 426.51 1.856C427.214 1.92 427.886 1.952 428.526 1.952C429.166 1.952 429.838 1.952 430.542 1.952C431.502 1.952 432.462 1.952 433.422 1.952C434.382 1.888 435.342 1.888 436.302 1.952C436.75 1.952 437.166 2.048 437.55 2.24C437.934 2.368 438.35 2.496 438.798 2.62399C440.206 2.944 441.518 3.488 442.734 4.256C444.014 4.96 445.262 5.696 446.478 6.464C447.502 7.168 448.398 8.16 449.166 9.44C449.422 9.76 449.646 10.112 449.838 10.496C450.094 10.816 450.318 11.168 450.51 11.552C450.638 11.744 450.702 11.968 450.702 12.224C450.766 12.48 450.862 12.736 450.99 12.992C451.822 15.104 452.206 17.312 452.142 19.616C452.078 20.32 451.982 21.056 451.854 21.824C451.726 22.528 451.598 23.232 451.47 23.936C451.15 25.408 450.606 26.752 449.838 27.968C449.134 29.184 448.27 30.336 447.246 31.424L444.174 34.592C444.366 35.104 444.558 35.584 444.75 36.032C445.006 36.48 445.262 36.96 445.518 37.472L448.014 42.752L452.238 50.912C452.494 51.36 452.686 51.776 452.814 52.16C453.006 52.544 453.134 52.992 453.198 53.504ZM434.766 24.608C435.79 23.52 436.398 22.336 436.59 21.056C436.782 19.776 436.782 18.464 436.59 17.12C436.526 16.288 436.11 15.552 435.342 14.912C434.382 14.144 433.358 13.664 432.27 13.472C431.246 13.216 430.19 13.152 429.102 13.28C428.654 13.28 428.206 13.312 427.758 13.376C427.31 13.376 426.862 13.408 426.414 13.472L424.302 13.664C423.79 13.728 423.534 14.048 423.534 14.624C423.598 15.904 423.662 17.152 423.726 18.368C423.79 19.584 423.79 20.832 423.726 22.112C423.726 23.264 424.046 24.352 424.686 25.376C425.262 25.44 425.838 25.504 426.414 25.568C426.99 25.568 427.534 25.632 428.046 25.76C429.774 26.08 431.406 26.048 432.942 25.664C433.646 25.472 434.254 25.12 434.766 24.608ZM511.802 16.64C513.082 19.328 513.882 22.048 514.202 24.8C514.586 27.488 514.522 30.272 514.01 33.152C513.818 34.496 513.434 35.936 512.858 37.472C512.282 38.944 511.61 40.416 510.842 41.888C510.074 43.36 509.21 44.736 508.25 46.016C507.354 47.296 506.394 48.384 505.37 49.28C504.346 50.24 503.354 51.008 502.394 51.584C499.834 52.928 497.562 53.952 495.578 54.656C493.594 55.36 491.642 55.776 489.722 55.904C487.802 56.032 485.818 55.936 483.77 55.616C481.722 55.232 479.354 54.688 476.666 53.984C475.834 53.664 475.002 53.344 474.17 53.024C473.338 52.704 472.506 52.352 471.674 51.968C470.202 51.328 468.858 50.528 467.642 49.568C466.426 48.544 465.402 47.296 464.57 45.824C464.186 45.184 463.77 44.608 463.322 44.096C462.874 43.52 462.426 42.944 461.978 42.368C461.466 41.536 461.018 40.672 460.634 39.776C460.314 38.88 460.026 37.984 459.77 37.088C459.578 36.512 459.45 35.936 459.386 35.36C459.386 34.72 459.354 34.112 459.29 33.536C458.906 29.632 459.098 25.696 459.866 21.728C460.186 20.384 460.602 19.072 461.114 17.792C461.626 16.512 462.33 15.296 463.226 14.144C464.186 12.864 465.114 11.648 466.01 10.496C466.97 9.344 467.962 8.32 468.986 7.424C470.074 6.464 471.226 5.632 472.442 4.928C473.722 4.16 475.162 3.52 476.762 3.008C477.658 2.688 478.522 2.432 479.354 2.24C480.25 2.048 481.146 1.824 482.042 1.568C483.578 1.12 485.114 0.896 486.65 0.896C488.25 0.831997 489.818 0.895996 491.354 1.088C492.314 1.216 493.274 1.408 494.234 1.664C495.194 1.92 496.122 2.24 497.018 2.62399C500.346 4.09599 503.258 5.984 505.754 8.288C508.25 10.592 510.266 13.376 511.802 16.64ZM494.618 39.2C495.77 38.176 496.666 37.248 497.306 36.416C498.01 35.584 498.522 34.784 498.842 34.016C499.162 33.184 499.354 32.288 499.418 31.328C499.546 30.304 499.578 29.12 499.514 27.776C499.45 25.536 498.906 23.584 497.882 21.92C496.922 20.192 495.61 18.656 493.946 17.312C493.434 16.928 492.89 16.544 492.314 16.16C491.738 15.776 491.098 15.52 490.394 15.392C489.818 15.264 489.242 15.2 488.666 15.2C488.09 15.136 487.482 15.072 486.842 15.008C485.946 14.944 485.114 15.008 484.346 15.2C483.578 15.328 482.778 15.52 481.946 15.776C479.706 16.352 477.946 17.664 476.666 19.712C475.386 21.696 474.586 23.904 474.266 26.336C473.946 28.704 474.138 31.04 474.842 33.344C475.546 35.648 476.762 37.44 478.49 38.72C479.706 39.616 480.954 40.32 482.234 40.832C483.578 41.344 484.986 41.568 486.458 41.504C488.186 41.504 489.754 41.28 491.162 40.832C491.802 40.64 492.41 40.448 492.986 40.256C493.562 40.064 494.106 39.712 494.618 39.2ZM566.207 20.864C566.591 21.568 566.815 22.304 566.879 23.072C567.007 23.776 567.039 24.512 566.975 25.28C566.975 25.728 566.943 26.368 566.879 27.2C566.879 27.968 566.879 28.576 566.879 29.024C567.007 30.688 566.847 32.288 566.399 33.824C566.015 35.36 565.503 36.896 564.863 38.432C564.607 39.136 564.319 39.808 563.999 40.448C563.679 41.088 563.359 41.728 563.039 42.368C562.719 42.88 562.399 43.424 562.079 44C561.759 44.512 561.439 45.024 561.119 45.536C560.159 46.88 559.039 48.064 557.759 49.088C556.543 50.112 555.295 51.072 554.015 51.968C551.647 53.44 549.023 54.336 546.143 54.656C545.183 54.784 544.223 54.912 543.263 55.04C542.303 55.104 541.343 55.2 540.383 55.328C538.143 55.712 535.711 55.84 533.087 55.712C531.999 55.584 530.879 55.52 529.727 55.52C528.639 55.52 527.551 55.552 526.463 55.616C524.863 55.744 523.423 55.52 522.143 54.944C521.631 54.752 521.247 54.336 520.991 53.696C520.863 53.248 520.767 52.832 520.703 52.448C520.639 52 520.575 51.552 520.511 51.104C520.511 50.272 520.511 49.472 520.511 48.704C520.575 47.936 520.639 47.136 520.703 46.304C520.767 44.896 520.799 43.616 520.799 42.464C520.799 41.248 520.767 40.064 520.703 38.912C520.703 37.76 520.671 36.608 520.607 35.456C520.607 34.24 520.607 32.928 520.607 31.52C520.543 30.176 520.511 28.704 520.511 27.104C520.575 25.44 520.607 23.776 520.607 22.112C520.607 20.384 520.575 18.72 520.511 17.12C520.511 15.52 520.447 14.048 520.319 12.704C520.127 11.232 519.999 9.792 519.935 8.384C519.871 6.912 519.967 5.43999 520.223 3.96799C520.351 3.64799 520.639 3.232 521.087 2.72C521.535 2.208 521.951 1.92 522.335 1.856C523.167 1.664 524.031 1.568 524.927 1.568C527.103 1.632 529.247 1.664 531.359 1.664C533.471 1.664 535.615 1.728 537.791 1.856C539.583 1.984 541.343 2.144 543.071 2.336C544.863 2.528 546.623 2.72 548.351 2.912C548.799 2.976 549.215 3.008 549.599 3.008C550.047 3.008 550.463 3.104 550.847 3.296C551.743 3.744 552.639 4.224 553.535 4.736C554.431 5.248 555.231 5.888 555.935 6.656C556.703 7.488 557.471 8.288 558.239 9.056C559.071 9.824 559.903 10.592 560.735 11.36C562.271 12.704 563.551 14.464 564.575 16.64C564.895 17.344 565.151 18.048 565.343 18.752C565.599 19.456 565.887 20.16 566.207 20.864ZM552.479 34.112C553.311 32.832 553.791 31.36 553.919 29.696C554.047 28.032 553.951 26.464 553.631 24.992C553.439 24.288 553.215 23.616 552.959 22.976C552.703 22.336 552.351 21.696 551.903 21.056C551.199 19.904 550.303 19.008 549.215 18.368C548.191 17.664 547.103 17.024 545.951 16.448C545.055 15.936 543.935 15.584 542.591 15.392C541.311 15.136 540.031 15.04 538.751 15.104C538.367 14.976 537.951 15.008 537.503 15.2C537.119 15.328 536.703 15.456 536.255 15.584C535.999 15.712 535.775 15.968 535.583 16.352C535.391 16.672 535.327 16.992 535.391 17.312C535.775 19.104 535.903 21.056 535.775 23.168C535.711 25.28 535.743 27.232 535.871 29.024C535.999 31.008 535.967 32.96 535.775 34.88C535.647 36.8 535.519 38.72 535.391 40.64C535.327 41.28 535.647 41.664 536.351 41.792H536.543C539.871 41.792 542.879 41.248 545.567 40.16C548.319 39.008 550.623 36.992 552.479 34.112ZM587.03 33.92C587.158 34.688 587.286 35.488 587.414 36.32C587.542 37.088 587.734 37.824 587.99 38.528C588.502 39.744 589.142 40.768 589.91 41.6C590.742 42.432 591.83 42.912 593.174 43.04C594.07 43.168 594.934 43.232 595.766 43.232C596.662 43.168 597.558 42.976 598.454 42.656C599.542 42.272 600.566 41.696 601.526 40.928C602.358 40.288 602.934 39.328 603.254 38.048C603.446 36.96 603.606 35.872 603.734 34.784C603.926 33.632 603.958 32.48 603.83 31.328L603.446 22.88C603.446 21.728 603.478 20.576 603.542 19.424C603.606 18.272 603.67 17.12 603.734 15.968C603.798 15.648 603.83 15.36 603.83 15.104C603.83 14.784 603.83 14.464 603.83 14.144C603.83 12.672 603.83 11.264 603.83 9.92C603.894 8.512 603.926 7.072 603.926 5.6V4.832C604.054 4.448 604.086 4.032 604.022 3.584C604.022 3.136 604.214 2.816 604.598 2.62399C605.11 2.304 605.622 2.048 606.134 1.856C606.71 1.6 607.35 1.504 608.054 1.568L610.838 1.76C611.542 1.76 612.246 1.76 612.95 1.76C613.654 1.76 614.358 1.728 615.062 1.664C615.766 1.664 616.47 1.856 617.174 2.24C617.686 2.56 618.006 2.912 618.134 3.296C618.262 3.616 618.358 4.032 618.422 4.544C618.55 5.824 618.486 7.072 618.23 8.288C618.038 9.504 617.974 10.72 618.038 11.936C618.102 12.064 618.102 12.224 618.038 12.416C618.038 12.544 618.07 12.672 618.134 12.8C618.198 13.44 618.23 14.08 618.23 14.72C618.23 15.296 618.134 15.936 617.942 16.64C617.814 16.896 617.75 17.184 617.75 17.504C617.814 17.76 617.878 18.016 617.942 18.272C618.134 19.872 618.198 21.44 618.134 22.976C618.134 24.512 618.134 26.048 618.134 27.584C618.07 28.672 618.038 29.728 618.038 30.752C618.102 31.776 618.134 32.8 618.134 33.824C618.134 34.848 618.07 35.872 617.942 36.896C617.878 37.856 617.686 38.816 617.366 39.776C617.174 40.288 617.046 40.832 616.982 41.408C616.918 41.984 616.79 42.528 616.598 43.04C615.958 44.704 615.19 46.24 614.294 47.648C613.462 49.056 612.342 50.304 610.934 51.392C610.486 51.776 609.974 52.128 609.398 52.448C608.886 52.704 608.374 52.992 607.862 53.312C606.582 53.952 605.27 54.464 603.926 54.848C602.646 55.168 601.302 55.424 599.894 55.616C598.166 55.872 596.438 56 594.71 56C593.046 56 591.35 55.84 589.622 55.52C589.046 55.392 588.47 55.296 587.894 55.232C587.318 55.168 586.742 55.04 586.166 54.848C585.142 54.464 584.214 53.984 583.382 53.408L579.734 51.008C579.03 50.56 578.422 50.08 577.91 49.568C577.462 48.992 577.014 48.384 576.566 47.744C575.67 46.528 574.966 45.248 574.454 43.904C573.942 42.56 573.526 41.152 573.206 39.68C572.886 38.336 572.694 36.992 572.63 35.648C572.63 34.304 572.694 32.96 572.822 31.616C572.822 30.336 572.79 29.056 572.726 27.776C572.726 26.432 572.694 25.12 572.63 23.84C572.63 21.92 572.598 20 572.534 18.08C572.534 16.16 572.534 14.24 572.534 12.32C572.534 11.808 572.534 11.328 572.534 10.88C572.534 10.432 572.566 9.984 572.63 9.536C572.694 8.704 572.662 7.904 572.534 7.136C572.47 6.368 572.373 5.6 572.245 4.832C571.925 3.296 572.47 2.272 573.878 1.76C574.838 1.44 575.702 1.27999 576.47 1.27999C577.686 1.27999 578.87 1.27999 580.022 1.27999C581.238 1.216 582.454 1.344 583.67 1.664C583.798 1.728 583.958 1.76 584.15 1.76C584.342 1.696 584.502 1.696 584.63 1.76C586.102 1.76 586.838 2.496 586.838 3.96799C586.902 4.928 586.934 5.888 586.934 6.848C586.998 7.808 587.03 8.768 587.03 9.728C587.03 10.624 586.966 11.52 586.838 12.416C586.774 13.248 586.742 14.112 586.742 15.008C586.678 16.48 586.646 17.952 586.646 19.424C586.71 20.896 586.742 22.368 586.742 23.84C586.678 24.48 586.614 25.12 586.549 25.76C586.486 26.4 586.486 27.04 586.549 27.68C586.614 28.768 586.678 29.824 586.742 30.848C586.806 31.872 586.902 32.896 587.03 33.92ZM666.18 50.816C665.796 51.584 665.284 52.192 664.644 52.64C664.068 53.024 663.396 53.376 662.628 53.696C660.068 54.592 657.316 55.456 654.372 56.288C653.988 56.416 653.604 56.48 653.22 56.48C652.9 56.48 652.58 56.512 652.26 56.576C650.532 56.448 648.868 56.256 647.268 56C645.668 55.68 644.068 55.36 642.468 55.04C640.612 54.656 638.916 54.08 637.38 53.312C635.844 52.48 634.404 51.488 633.06 50.336C631.844 49.248 630.66 48.16 629.508 47.072C628.42 45.984 627.524 44.704 626.82 43.232C626.116 41.952 625.412 40.672 624.708 39.392C624.068 38.048 623.588 36.64 623.268 35.168C623.14 34.464 623.012 33.76 622.884 33.056C622.756 32.352 622.628 31.648 622.5 30.944C622.436 30.624 622.436 30.304 622.5 29.984C622.628 29.6 622.692 29.248 622.692 28.928C622.82 26.88 623.108 24.864 623.556 22.88C624.068 20.896 624.772 18.976 625.668 17.12C626.756 14.752 628.356 12.672 630.468 10.88C632.196 9.344 634.18 7.808 636.42 6.272C637.956 5.248 639.492 4.416 641.028 3.776C641.668 3.456 642.308 3.232 642.948 3.104C643.652 2.976 644.356 2.848 645.06 2.72C645.764 2.592 646.436 2.496 647.076 2.432C647.78 2.368 648.484 2.272 649.188 2.144C650.596 1.888 652.036 1.888 653.508 2.144C654.724 2.46399 655.908 2.752 657.06 3.008C658.276 3.2 659.46 3.456 660.612 3.776C661.444 4.032 662.244 4.352 663.012 4.736C663.78 5.056 664.516 5.44 665.22 5.888C666.436 6.592 667.108 7.584 667.236 8.864C667.428 10.144 667.076 11.328 666.18 12.416C665.668 12.992 665.22 13.6 664.836 14.24C664.452 14.816 664.004 15.424 663.492 16.064C663.108 16.576 662.596 17.12 661.956 17.696C661.188 18.4 660.292 18.496 659.268 17.984C658.564 17.6 657.86 17.248 657.156 16.928C656.516 16.608 655.844 16.288 655.14 15.968C653.86 15.328 652.388 15.008 650.724 15.008C649.764 15.072 648.772 15.104 647.748 15.104C646.788 15.04 645.828 15.2 644.868 15.584C644.164 15.904 643.492 16.32 642.852 16.832C642.276 17.28 641.732 17.792 641.22 18.368C640.708 18.88 640.228 19.456 639.78 20.096C637.284 23.872 636.548 27.968 637.572 32.384C637.956 33.856 638.564 35.264 639.396 36.608C640.932 39.04 642.884 40.736 645.252 41.696C647.044 42.528 648.836 42.816 650.628 42.56L653.7 42.368C655.108 42.176 656.452 41.696 657.732 40.928C658.372 40.48 658.884 40.288 659.268 40.352C659.652 40.416 660.1 40.704 660.612 41.216C661.316 41.92 661.956 42.688 662.532 43.52C663.108 44.288 663.716 45.024 664.356 45.728C664.804 46.24 665.156 46.784 665.412 47.36C665.732 47.936 666.02 48.544 666.276 49.184C666.468 49.824 666.436 50.368 666.18 50.816ZM671.817 12.608C671.817 12.416 671.785 12.224 671.721 12.032C671.721 11.776 671.753 11.584 671.817 11.456C672.009 10.624 672.073 9.728 672.009 8.768C671.945 7.808 671.881 6.912 671.817 6.08V5.312C671.753 4.672 671.817 3.968 672.009 3.2C672.265 2.432 672.745 1.952 673.449 1.76C674.025 1.568 674.601 1.536 675.177 1.664C675.817 1.728 676.425 1.792 677.001 1.856C677.705 1.856 678.441 1.888 679.209 1.952C679.977 1.952 680.713 1.952 681.417 1.952H693.993C695.785 1.952 697.577 1.984 699.369 2.048C701.161 2.048 702.953 1.984 704.745 1.856C705.641 1.792 706.505 1.792 707.337 1.856C708.233 1.92 709.129 1.984 710.025 2.048C710.601 2.048 711.305 2.016 712.137 1.952C713.033 1.824 713.705 2.016 714.153 2.528C714.473 2.912 714.633 3.392 714.633 3.96799C714.697 4.48 714.761 4.992 714.825 5.504C714.889 6.208 714.889 7.04 714.825 8C714.761 8.96 714.729 9.824 714.729 10.592L714.537 12.8C714.473 13.44 714.185 13.984 713.673 14.432C713.225 14.816 712.681 15.04 712.041 15.104L706.857 15.488C706.217 15.552 705.577 15.584 704.937 15.584C704.297 15.584 703.657 15.584 703.017 15.584C702.441 15.52 701.929 15.552 701.481 15.68C701.097 15.808 700.841 16.192 700.713 16.832C700.585 17.216 700.553 17.6 700.617 17.984C700.745 18.304 700.809 18.656 700.809 19.04C700.809 19.744 700.745 20.416 700.617 21.056C700.553 21.632 700.553 22.272 700.617 22.976C700.745 24.448 700.777 25.824 700.713 27.104C700.713 28.384 700.649 29.76 700.521 31.232C700.457 32.384 700.425 33.536 700.425 34.688C700.425 35.84 700.425 36.96 700.425 38.048V44.384C700.425 45.28 700.457 46.208 700.521 47.168C700.585 48.128 700.617 49.056 700.617 49.952C700.617 50.464 700.585 51.008 700.521 51.584C700.521 52.16 700.489 52.704 700.425 53.216C700.361 53.856 700.009 54.432 699.369 54.944C698.793 55.456 698.153 55.776 697.449 55.904H695.817C694.793 55.968 693.769 56 692.745 56C691.785 56.064 690.793 56.096 689.769 56.096C689.065 56.096 688.393 56 687.753 55.808C686.729 55.552 686.185 54.912 686.121 53.888C686.121 52.416 686.057 51.008 685.929 49.664C685.865 48.32 685.897 46.912 686.025 45.44C686.153 43.2 686.185 40.928 686.121 38.624C686.121 36.32 686.153 34.048 686.217 31.808V19.328C686.217 18.816 686.249 18.272 686.313 17.696C686.441 17.056 686.409 16.512 686.217 16.064C686.089 15.744 685.833 15.616 685.449 15.68C685.129 15.68 684.809 15.68 684.489 15.68C682.761 15.68 681.033 15.648 679.305 15.584C677.577 15.456 675.849 15.328 674.121 15.2C673.481 15.072 672.937 14.784 672.489 14.336C672.105 13.824 671.881 13.248 671.817 12.608ZM749.749 22.016C753.077 23.488 755.893 25.472 758.197 27.968C760.501 30.464 761.909 33.568 762.421 37.28C762.677 38.752 762.549 40.384 762.037 42.176C761.653 43.712 761.173 45.12 760.597 46.4C760.085 47.488 759.381 48.448 758.485 49.28C757.653 50.048 756.757 50.784 755.797 51.488C752.533 53.792 748.821 55.2 744.661 55.712C739.925 56.288 735.445 55.648 731.221 53.792C730.645 53.472 730.069 53.152 729.493 52.832C728.917 52.512 728.341 52.192 727.765 51.872C726.933 51.36 726.261 50.912 725.749 50.528C725.301 50.144 724.885 49.792 724.501 49.472C724.117 49.152 723.733 48.8 723.349 48.416C723.029 48.032 722.549 47.584 721.909 47.072C720.693 46.048 720.341 44.8 720.853 43.328C721.301 42.176 722.101 41.248 723.253 40.544L727.477 37.568C728.181 37.12 728.757 36.928 729.205 36.992C729.717 37.056 730.261 37.344 730.837 37.856C731.157 38.176 731.669 38.592 732.373 39.104C733.077 39.616 733.589 40 733.909 40.256C735.381 41.216 736.885 41.984 738.421 42.56C739.957 43.136 741.653 43.168 743.509 42.656C743.893 42.528 744.213 42.464 744.469 42.464C744.789 42.336 745.109 42.24 745.429 42.176C745.813 42.048 746.133 41.824 746.389 41.504C746.709 40.992 746.965 40.512 747.157 40.064C747.349 39.552 747.477 39.008 747.541 38.432C747.605 37.92 747.477 37.472 747.157 37.088C746.901 36.704 746.549 36.352 746.101 36.032C745.781 35.712 745.397 35.456 744.949 35.264C744.565 35.008 744.181 34.784 743.797 34.592L740.917 33.152C740.661 33.024 740.405 32.896 740.149 32.768C739.893 32.64 739.605 32.544 739.285 32.48C738.069 32.352 736.885 32.064 735.733 31.616C734.645 31.168 733.557 30.688 732.469 30.176C731.893 29.92 731.285 29.696 730.645 29.504C730.005 29.248 729.397 28.96 728.821 28.64C727.925 28.128 727.061 27.392 726.229 26.432C724.821 24.832 723.797 23.072 723.157 21.152C722.261 18.656 722.005 16.192 722.389 13.76C722.581 12.416 722.933 11.072 723.445 9.728C724.149 7.936 725.365 6.336 727.093 4.928C727.669 4.416 728.213 3.968 728.725 3.584C729.301 3.2 729.941 2.912 730.645 2.72C731.093 2.592 731.509 2.496 731.893 2.432C732.341 2.304 732.789 2.176 733.237 2.048C735.029 1.6 736.405 1.312 737.365 1.184C738.389 0.991999 739.317 0.896 740.149 0.896C740.981 0.896 741.845 0.927999 742.741 0.991999C743.701 1.056 744.981 1.088 746.581 1.088C747.477 1.088 748.309 1.248 749.077 1.568C749.845 1.824 750.613 2.08 751.381 2.336C751.893 2.464 752.405 2.656 752.917 2.912C753.429 3.168 753.941 3.456 754.453 3.776C755.221 4.16 755.989 4.544 756.757 4.928C757.525 5.312 758.261 5.76 758.965 6.272C760.373 7.232 760.789 8.576 760.213 10.304C760.021 11.008 759.573 11.552 758.869 11.936C758.613 12 758.293 12.288 757.909 12.8C757.141 13.504 756.469 14.176 755.893 14.816C755.445 15.328 754.965 15.808 754.453 16.256C753.941 16.704 753.333 17.024 752.629 17.216C751.989 17.408 751.445 17.344 750.997 17.024C750.229 16.32 749.301 15.648 748.213 15.008C747.637 14.688 747.029 14.4 746.389 14.144C745.749 13.824 745.109 13.536 744.469 13.28C744.149 13.152 743.797 13.088 743.413 13.088C743.029 13.024 742.677 12.992 742.357 12.992C741.909 12.992 741.461 12.992 741.013 12.992C740.629 12.992 740.213 13.056 739.765 13.184C739.445 13.312 739.093 13.44 738.709 13.568C738.389 13.696 738.101 13.888 737.845 14.144C737.269 14.528 736.949 15.008 736.885 15.584C736.885 16.16 737.141 16.704 737.653 17.216C738.229 17.792 738.869 18.272 739.573 18.656C740.277 18.976 741.013 19.264 741.781 19.52L743.701 20.288L746.005 20.96C746.645 21.152 747.285 21.312 747.925 21.44C748.565 21.568 749.173 21.76 749.749 22.016Z" fill="#036147"/>
</svg>
