<svg width="284" height="95" viewBox="0 0 284 95" fill="none" xmlns="http://www.w3.org/2000/svg">
<path d="M40.4589 29.2018C44.9438 31.1855 48.7388 33.8593 51.8437 37.223C54.9487 40.5867 56.8462 44.7698 57.5362 49.7722C57.8812 51.7559 57.7087 53.9553 57.0187 56.3702C56.5012 58.4402 55.8543 60.3377 55.0781 62.0627C54.3881 63.5289 53.4393 64.8226 52.2319 65.9439C51.1106 66.9789 49.9031 67.9707 48.6094 68.9195C44.2107 72.0244 39.2083 73.9219 33.6021 74.6119C27.2197 75.3881 21.1822 74.5256 15.4898 72.0244C14.7136 71.5932 13.9373 71.1619 13.1611 70.7307C12.3849 70.2994 11.6086 69.8682 10.8324 69.4369C9.71114 68.747 8.80553 68.1432 8.11554 67.6257C7.51179 67.1082 6.95118 66.6339 6.43368 66.2026C5.91619 65.7714 5.3987 65.297 4.8812 64.7795C4.44996 64.262 3.80309 63.6583 2.9406 62.9683C1.30187 61.5883 0.827502 59.9064 1.51749 57.9227C2.12124 56.3702 3.19935 55.1196 4.75183 54.1709L10.4443 50.1603C11.393 49.5566 12.1692 49.2978 12.773 49.3841C13.463 49.4703 14.1961 49.8584 14.9723 50.5484C15.4036 50.9797 16.0936 51.5403 17.0423 52.2303C17.991 52.9203 18.681 53.4378 19.1123 53.7828C21.096 55.0765 23.1228 56.1115 25.1928 56.8877C27.2628 57.664 29.5484 57.7071 32.0496 57.0171C32.5671 56.8446 32.9984 56.7584 33.3433 56.7584C33.7746 56.5859 34.2058 56.4565 34.6371 56.3702C35.1546 56.1977 35.5858 55.8959 35.9308 55.4646C36.3621 54.7746 36.7071 54.1278 36.9658 53.524C37.2245 52.834 37.397 52.1009 37.4833 51.3247C37.5695 50.6347 37.397 50.0309 36.9658 49.5134C36.6208 48.9959 36.1464 48.5216 35.5427 48.0903C35.1115 47.6591 34.594 47.3141 33.9902 47.0553C33.4727 46.7104 32.9552 46.4085 32.4377 46.1497L28.5565 44.2091C28.2115 44.0366 27.8665 43.8641 27.5215 43.6916C27.1765 43.5191 26.7884 43.3898 26.3572 43.3035C24.7185 43.131 23.1228 42.7429 21.5704 42.1392C20.1041 41.5354 18.6379 40.8885 17.1717 40.1986C16.3954 39.8536 15.5761 39.5517 14.7136 39.2929C13.8511 38.9479 13.0317 38.5598 12.2555 38.1286C11.048 37.4386 9.88364 36.4467 8.7624 35.153C6.86493 32.9968 5.48494 30.6249 4.62245 28.0375C3.41497 24.6738 3.06997 21.3532 3.58747 18.0757C3.84621 16.2645 4.32058 14.4533 5.01058 12.642C5.95931 10.2271 7.59804 8.07083 9.92676 6.17336C10.703 5.48337 11.4361 4.87962 12.1261 4.36213C12.9024 3.84464 13.7648 3.45652 14.7136 3.19777C15.3173 3.02527 15.8779 2.8959 16.3954 2.80965C16.9992 2.63715 17.6029 2.46466 18.2067 2.29215C20.6216 1.68841 22.476 1.30029 23.7697 1.12779C25.1497 0.86905 26.4003 0.739678 27.5215 0.739678C28.6428 0.739678 29.8071 0.782802 31.0146 0.86905C32.3084 0.955298 34.0333 0.998422 36.1896 0.998422C37.397 0.998422 38.5183 1.21404 39.5533 1.64529C40.5883 1.99028 41.6232 2.33528 42.6582 2.68028C43.3482 2.85277 44.0382 3.11152 44.7282 3.45652C45.4182 3.80151 46.1082 4.18963 46.7982 4.62088C47.8332 5.13837 48.8682 5.65586 49.9031 6.17336C50.9381 6.69085 51.93 7.29459 52.8787 7.98459C54.7762 9.27832 55.3368 11.0895 54.5606 13.4183C54.3018 14.367 53.6981 15.1001 52.7494 15.6176C52.4044 15.7039 51.9731 16.092 51.4556 16.782C50.4206 17.7307 49.515 18.6363 48.7388 19.4988C48.135 20.1888 47.4882 20.8357 46.7982 21.4394C46.1082 22.0432 45.2888 22.4744 44.3401 22.7332C43.4776 22.9919 42.7445 22.9056 42.1407 22.4744C41.1058 21.5257 39.8551 20.6201 38.3889 19.7576C37.6127 19.3263 36.7933 18.9382 35.9308 18.5932C35.0683 18.162 34.2058 17.7738 33.3433 17.4288C32.9121 17.2563 32.4377 17.1701 31.9202 17.1701C31.4027 17.0838 30.9284 17.0407 30.4971 17.0407C29.8934 17.0407 29.2896 17.0407 28.6859 17.0407C28.1684 17.0407 27.6078 17.127 27.0041 17.2995C26.5728 17.472 26.0984 17.6445 25.5809 17.817C25.1497 17.9895 24.7616 18.2482 24.4166 18.5932C23.6403 19.1107 23.2091 19.7576 23.1228 20.5338C23.1228 21.31 23.4678 22.0432 24.1578 22.7332C24.9341 23.5094 25.7966 24.1563 26.7453 24.6738C27.694 25.105 28.6859 25.4931 29.7209 25.8381L32.3084 26.8731L35.4133 27.7787C36.2758 28.0375 37.1383 28.2531 38.0008 28.4256C38.8633 28.5981 39.6826 28.8568 40.4589 29.2018ZM108.133 6.9496C108.22 5.48336 108.651 4.4915 109.427 3.97401C110.203 3.45652 111.368 3.11152 112.92 2.93902C114.041 2.76652 115.163 2.63715 116.284 2.55091C117.405 2.3784 118.526 2.33528 119.648 2.42153C120.596 2.50778 121.459 2.59403 122.235 2.68028C123.097 2.68028 124.003 2.76652 124.952 2.93902C125.642 3.11152 126.289 3.19777 126.892 3.19777C127.582 3.11152 128.229 3.41339 128.833 4.10338V9.66644C128.833 10.6152 128.79 11.5639 128.704 12.5127C128.704 13.3751 128.704 14.2808 128.704 15.2295C128.704 16.1782 128.704 17.0838 128.704 17.9463C128.704 18.7226 128.661 19.5851 128.574 20.5338L128.186 31.2718V40.1986C128.186 41.9235 128.143 43.6485 128.057 45.3735C127.971 47.0122 127.971 48.6941 128.057 50.4191C128.143 52.144 128.143 53.8259 128.057 55.4646C128.057 57.0171 128.014 58.6558 127.927 60.3808C127.927 61.4158 127.927 62.6233 127.927 64.0033C128.014 65.3832 128.1 66.5907 128.186 67.6257C128.272 68.3157 128.272 69.0488 128.186 69.8251C128.186 70.5151 128.272 71.205 128.445 71.895C128.617 72.8438 128.402 73.5338 127.798 73.965C127.194 74.3963 126.418 74.655 125.469 74.7413L119.13 75.1294C118.181 75.1294 117.233 75.1294 116.284 75.1294C115.421 75.2156 114.516 75.2587 113.567 75.2587C112.877 75.2587 112.187 75.1725 111.497 75C110.893 74.8275 110.29 74.4394 109.686 73.8356C109.082 73.2319 108.78 72.6282 108.78 72.0244L108.521 60.8983C108.435 59.5183 108.349 58.1383 108.263 56.7584C108.263 55.3784 108.263 53.9984 108.263 52.6184C108.176 51.7559 108.133 50.9365 108.133 50.1603C108.22 49.2978 108.263 48.4785 108.263 47.7022C108.176 46.581 107.616 46.0204 106.581 46.0204C104.511 45.9341 102.441 45.891 100.371 45.891C98.3009 45.8047 96.2309 45.7616 94.161 45.7616C93.0397 45.6754 91.7891 45.6754 90.4091 45.7616C89.1154 45.8479 87.951 45.9341 86.9161 46.0204C86.3986 46.1066 85.9673 46.4516 85.6223 47.0553C85.2773 47.5728 85.148 48.1335 85.2342 48.7372C85.3205 50.2034 85.2773 51.8853 85.1048 53.7828C85.0186 55.6802 85.0617 57.3621 85.2342 58.8283C85.4929 60.5533 85.5792 62.2783 85.4929 64.0033C85.4067 65.7282 85.2773 67.4532 85.1048 69.1782C85.0186 69.7819 85.0617 70.3426 85.2342 70.8601C85.4067 71.3775 85.4498 71.895 85.3636 72.4125C84.9323 74.0513 83.8973 74.8706 82.2586 74.8706C80.6199 74.9569 78.9812 75 77.3424 75C75.7037 75 74.065 75 72.4262 75C71.8225 75 71.2619 75 70.7444 75C70.2269 75.0862 69.6663 75.1294 69.0625 75.1294C66.9063 74.9569 65.6557 73.8788 65.3107 71.895C65.052 70.6013 65.0088 69.3076 65.1813 68.0138C65.2676 66.7201 65.3107 65.4695 65.3107 64.262C65.3107 62.2783 65.3107 60.2946 65.3107 58.3108C65.397 56.3271 65.4832 54.3434 65.5694 52.3597V45.6322C65.5694 44.4248 65.6126 43.2604 65.6988 42.1392C65.7851 41.0179 65.7851 39.8967 65.6988 38.7755C65.6988 37.0505 65.6557 35.3686 65.5694 33.7299C65.5694 32.0912 65.5263 30.4093 65.4401 28.6843C65.4401 27.3906 65.4832 26.14 65.5694 24.9325C65.7419 23.6388 65.8282 22.345 65.8282 21.0513C65.8282 20.5338 65.8282 20.0163 65.8282 19.4988C65.8282 18.8951 65.7851 18.3345 65.6988 17.817C65.5263 15.9195 65.5263 13.8495 65.6988 11.607C65.8713 9.36457 66.0007 7.29459 66.0869 5.39711C66.1732 4.70713 66.3888 4.27588 66.7338 4.10338C67.0788 3.84464 67.5963 3.54277 68.2863 3.19777C69.4075 2.59403 70.7444 2.3784 72.2969 2.55091C73.4181 2.63715 74.5393 2.68028 75.6606 2.68028C76.7818 2.59403 77.903 2.63715 79.0243 2.80965C80.4043 2.98214 81.8274 3.24089 83.2936 3.58589C84.5011 3.93088 85.1048 4.664 85.1048 5.78524C85.1048 6.04399 85.148 6.25961 85.2342 6.4321C85.6654 7.38084 85.8811 8.3727 85.8811 9.40769C85.8811 10.4427 85.7948 11.4777 85.6223 12.5127C85.4498 13.6339 85.4067 14.7551 85.4929 15.8764C85.5792 16.9976 85.5792 18.162 85.4929 19.3694C85.4067 20.5769 85.3205 21.8275 85.2342 23.1213C85.148 24.3288 85.1911 25.5362 85.3636 26.7437C85.5361 27.2612 85.6223 27.6062 85.6223 27.7787C85.7086 27.9512 86.0967 28.0806 86.7867 28.1668L95.3253 28.4256H100.112C100.802 28.3393 101.535 28.2962 102.311 28.2962C103.088 28.21 103.864 28.2531 104.64 28.4256C105.675 28.5981 106.495 28.4256 107.098 27.9081C107.702 27.3906 108.004 26.8731 108.004 26.3556C108.004 25.7519 108.004 25.105 108.004 24.415C108.004 23.1213 108.047 21.8275 108.133 20.5338C108.22 19.1538 108.263 17.817 108.263 16.5232C108.176 15.057 108.133 13.5908 108.133 12.1245C108.133 10.6583 108.133 9.19207 108.133 7.72584V6.9496ZM207.596 21.9569C209.321 25.5794 210.399 29.2449 210.83 32.9536C211.348 36.5761 211.262 40.3279 210.572 44.2091C210.313 46.0204 209.796 47.961 209.019 50.0309C208.243 52.0147 207.337 53.9984 206.302 55.9821C205.267 57.9658 204.103 59.8202 202.809 61.5452C201.602 63.2701 200.308 64.7364 198.928 65.9439C197.548 67.2376 196.211 68.2726 194.918 69.0488C191.468 70.8601 188.406 72.24 185.732 73.1888C183.058 74.1375 180.428 74.6981 177.84 74.8706C175.253 75.0431 172.579 74.9138 169.819 74.4825C167.059 73.965 163.868 73.2319 160.245 72.2832C159.124 71.8519 158.003 71.4207 156.882 70.9894C155.761 70.5582 154.639 70.0838 153.518 69.5663C151.534 68.7038 149.723 67.6257 148.084 66.332C146.446 64.952 145.066 63.2701 143.944 61.2864C143.427 60.4239 142.866 59.6477 142.263 58.9577C141.659 58.1815 141.055 57.4052 140.451 56.629C139.761 55.5077 139.158 54.3434 138.64 53.1359C138.209 51.9284 137.821 50.7209 137.476 49.5134C137.217 48.7372 137.045 47.961 136.958 47.1847C136.958 46.3222 136.915 45.5029 136.829 44.7266C136.311 39.4654 136.57 34.1611 137.605 28.8137C138.036 27.0025 138.597 25.2344 139.287 23.5094C139.977 21.7844 140.926 20.1457 142.133 18.5932C143.427 16.8682 144.678 15.2295 145.885 13.677C147.179 12.1245 148.516 10.7446 149.896 9.53706C151.362 8.24333 152.914 7.1221 154.553 6.17336C156.278 5.13837 158.219 4.27588 160.375 3.58589C161.582 3.15464 162.747 2.80965 163.868 2.55091C165.075 2.29216 166.283 1.99028 167.49 1.64529C169.56 1.04155 171.63 0.739678 173.7 0.739678C175.857 0.653425 177.97 0.739673 180.04 0.998422C181.333 1.17092 182.627 1.42966 183.921 1.77466C185.215 2.11966 186.465 2.5509 187.673 3.06839C192.158 5.05212 196.082 7.59646 199.446 10.7014C202.809 13.8064 205.526 17.5582 207.596 21.9569ZM184.438 52.3597C185.991 50.9797 187.198 49.7291 188.061 48.6078C189.01 47.4866 189.7 46.4085 190.131 45.3735C190.562 44.2523 190.821 43.0448 190.907 41.751C191.079 40.3711 191.123 38.7755 191.036 36.9642C190.95 33.9455 190.217 31.3149 188.837 29.0724C187.543 26.7437 185.775 24.6738 183.533 22.8625C182.843 22.345 182.11 21.8275 181.333 21.31C180.557 20.7925 179.695 20.4476 178.746 20.2751C177.97 20.1026 177.193 20.0163 176.417 20.0163C175.641 19.9301 174.822 19.8438 173.959 19.7576C172.752 19.6713 171.63 19.7576 170.595 20.0163C169.56 20.1888 168.482 20.4476 167.361 20.7925C164.342 21.5688 161.97 23.3369 160.245 26.0969C158.521 28.7706 157.442 31.7462 157.011 35.0236C156.58 38.2148 156.839 41.3629 157.787 44.4679C158.736 47.5728 160.375 49.9878 162.704 51.7128C164.342 52.9203 166.024 53.869 167.749 54.559C169.56 55.249 171.458 55.5509 173.442 55.4646C175.77 55.4646 177.883 55.1627 179.781 54.559C180.643 54.3003 181.463 54.0415 182.239 53.7828C183.015 53.524 183.748 53.0496 184.438 52.3597ZM272.893 37.0936C272.031 39.1636 270.694 40.9317 268.883 42.3979C267.072 43.8641 265.045 45.0716 262.802 46.0204C260.56 46.9691 258.231 47.6591 255.816 48.0903C253.487 48.4353 251.288 48.6078 249.218 48.6078C248.701 48.6078 248.14 48.6078 247.536 48.6078C247.019 48.5216 246.501 48.4785 245.984 48.4785C245.121 48.3922 244.259 48.3491 243.396 48.3491C242.62 48.3491 241.801 48.3491 240.938 48.3491C240.593 48.3491 240.291 48.5216 240.032 48.8666C239.774 49.2116 239.601 49.5566 239.515 49.9016C239.515 50.1603 239.472 50.8503 239.386 51.9715C239.299 53.0065 239.213 54.1278 239.127 55.3352C239.041 56.4565 238.954 57.4915 238.868 58.4402C238.868 59.3889 238.911 59.8633 238.998 59.8633V72.0244C238.998 72.2832 238.998 72.585 238.998 72.93C238.998 73.1888 238.911 73.4475 238.739 73.7063C238.308 74.4825 237.574 74.8706 236.539 74.8706H222.179C221.316 74.8706 220.713 74.7413 220.368 74.4825C220.109 74.2238 219.936 73.6631 219.85 72.8007C219.678 69.7819 219.548 67.2807 219.462 65.297C219.462 63.227 219.462 61.4589 219.462 59.9927C219.548 58.4402 219.635 57.0171 219.721 55.7234C219.807 54.4296 219.893 53.0496 219.98 51.5834C220.066 50.1172 220.109 48.3922 220.109 46.4085C220.109 44.4248 220.066 41.9667 219.98 39.0342C219.98 38.9479 219.98 37.8267 219.98 35.6705C219.98 33.428 219.98 30.9699 219.98 28.2962C220.066 25.6225 220.109 23.2075 220.109 21.0513C220.109 18.8088 220.109 17.6445 220.109 17.5582L219.85 5.009C219.678 3.62901 220.152 2.59403 221.273 1.90404C221.532 1.73154 222.006 1.55904 222.696 1.38654C222.869 1.38654 223.041 1.42967 223.214 1.51592C223.386 1.51592 223.559 1.51592 223.731 1.51592C227.354 1.51592 230.89 1.55904 234.34 1.64529C237.79 1.64529 241.326 1.64529 244.949 1.64529C245.725 1.64529 246.458 1.60216 247.148 1.51592C247.924 1.42967 248.701 1.38654 249.477 1.38654C251.805 1.21404 254.091 1.30029 256.334 1.64529C258.662 1.90404 260.905 2.59403 263.061 3.71527L266.683 5.65587C267.805 6.25961 268.883 7.16522 269.918 8.3727C270.953 9.49394 271.858 10.7445 272.635 12.1245C273.497 13.4183 274.187 14.7983 274.705 16.2645C275.308 17.7307 275.696 19.0244 275.869 20.1457C276.214 22.3882 276.386 24.1563 276.386 25.45C276.473 26.7437 276.386 27.9512 276.128 29.0724C275.955 30.1074 275.567 31.2287 274.963 32.4362C274.446 33.6436 273.756 35.1961 272.893 37.0936ZM238.609 18.4638C238.437 20.8788 238.351 23.2938 238.351 25.7087C238.437 28.0375 238.739 30.4524 239.256 32.9536C239.774 32.9536 240.248 32.9968 240.679 33.083C241.197 33.083 241.671 33.083 242.102 33.083C243.569 33.1693 245.035 33.2124 246.501 33.2124C248.054 33.2124 249.563 32.9968 251.029 32.5655C251.374 32.393 251.676 32.3068 251.935 32.3068C252.28 32.2205 252.582 32.0912 252.84 31.9187C254.307 30.4524 255.342 29.0293 255.945 27.6493C256.549 26.1831 256.377 24.4581 255.428 22.4744C254.738 21.0944 253.875 19.9732 252.84 19.1107C251.805 18.162 250.425 17.7307 248.701 17.817L242.102 18.0757C241.671 18.162 241.024 18.162 240.162 18.0757C239.299 17.9895 238.782 18.1188 238.609 18.4638Z" fill="white"/>
<path d="M1 87.9373H283.243V94.406H1V87.9373Z" fill="white"/>
</svg>
