<svg width="434" height="136" viewBox="0 0 434 136" fill="none" xmlns="http://www.w3.org/2000/svg">
<path d="M2.43 90.52C2.31667 90.18 2.20333 89.5567 2.09 88.65C1.86333 87.63 1.63667 86.61 1.41 85.59C1.18333 84.4567 1.01333 83.4367 0.899998 82.53C0.673333 81.51 0.56 80.83 0.56 80.49C0.56 79.9233 0.616666 79.4133 0.729998 78.96C0.729998 78.5067 1.24 77.6567 2.26 76.41C2.94 75.8433 3.79 75.6167 4.81 75.73C5.83 75.73 6.79333 75.73 7.7 75.73C9.74 75.73 11.78 75.7867 13.82 75.9C15.7467 75.9 17.6733 75.7867 19.6 75.56C20.0533 75.56 20.5067 75.6167 20.96 75.73C21.3 75.73 21.6967 75.73 22.15 75.73C23.3967 75.8433 24.4167 76.0133 25.21 76.24C26.0033 76.3533 26.3433 77.3733 26.23 79.3C26.1167 81.2267 26.5133 83.38 27.42 85.76C28.44 88.0267 29.29 90.1233 29.97 92.05C30.4233 93.6367 31.1033 95.1667 32.01 96.64C32.5767 97.5467 33.2 98.34 33.88 99.02C34.56 99.7 35.3533 100.38 36.26 101.06C38.0733 102.647 40 104.233 42.04 105.82C43.2867 106.727 44.59 107.577 45.95 108.37C47.31 109.163 48.7833 109.787 50.37 110.24C52.5233 110.92 54.6767 111.203 56.83 111.09C58.9833 111.09 61.1933 110.807 63.46 110.24C66.52 109.447 69.3533 108.313 71.96 106.84C74.68 105.48 77.3433 103.893 79.95 102.08C81.1967 101.173 82.2167 100.153 83.01 99.02C83.8033 97.8867 84.54 96.6967 85.22 95.45C86.1267 93.75 86.9767 91.9367 87.77 90.01C88.5633 88.0833 89.0733 86.1567 89.3 84.23C89.5267 82.19 89.4133 80.2633 88.96 78.45C88.5067 76.5233 87.4867 74.7667 85.9 73.18C85.1067 72.3867 84.37 71.5933 83.69 70.8C83.1233 69.8933 82.33 69.1567 81.31 68.59L77.74 66.55C75.7 65.53 73.6033 64.5667 71.45 63.66C69.2967 62.7533 67.0867 62.0167 64.82 61.45C62.2133 60.6567 59.6067 59.8633 57 59.07C54.3933 58.1633 51.8433 57.0867 49.35 55.84C47.4233 54.9333 45.4967 54.0267 43.57 53.12C41.7567 52.2133 40 51.1367 38.3 49.89C36.26 48.3033 34.2767 46.7167 32.35 45.13C30.4233 43.43 28.78 41.4467 27.42 39.18C24.4733 34.42 23.3967 29.32 24.19 23.88C25.0967 18.44 27.3633 13.68 30.99 9.59999C31.8967 8.46666 32.9733 7.56 34.22 6.88C35.4667 6.19999 36.7133 5.51999 37.96 4.83999C40.2267 3.81999 42.4933 3.08333 44.76 2.62999C47.14 2.06333 49.5767 1.60999 52.07 1.27C53.43 1.04333 54.79 0.873327 56.15 0.759995C57.6233 0.533332 59.04 0.42 60.4 0.42C61.6467 0.42 62.8933 0.533332 64.14 0.759995C65.3867 0.986659 66.6333 1.21333 67.88 1.44C68.56 1.66666 69.5233 1.94999 70.77 2.29C72.0167 2.63 73.2633 3.02666 74.51 3.47999C75.87 3.81999 77.1167 4.21666 78.25 4.67C79.3833 5.12333 80.29 5.57666 80.97 6.03C82.2167 6.93666 83.4633 7.84333 84.71 8.74999C86.07 9.65666 87.43 10.5633 88.79 11.47C90.49 12.7167 91.34 13.9633 91.34 15.21C91.4533 16.3433 91.1133 17.59 90.32 18.95C88.7333 21.7833 86.75 23.9933 84.37 25.58C83.69 26.1467 83.01 26.7133 82.33 27.28C81.7633 27.8467 81.1967 28.4133 80.63 28.98C79.1567 30.2267 77.4567 30.3967 75.53 29.49C73.6033 28.5833 71.5067 27.45 69.24 26.09C66.9733 24.73 64.5367 23.5967 61.93 22.69C59.4367 21.7833 56.8867 21.9533 54.28 23.2C52.3533 24.1067 51.22 25.3533 50.88 26.94C50.54 28.4133 51.1067 29.9433 52.58 31.53C53.8267 33.0033 55.4133 34.1933 57.34 35.1C59.6067 36.3467 61.93 37.3667 64.31 38.16C66.8033 38.84 69.3533 39.4633 71.96 40.03C73.2067 40.2567 74.3967 40.6533 75.53 41.22C76.7767 41.6733 78.0233 42.07 79.27 42.41C81.65 42.9767 83.9167 43.8267 86.07 44.96C88.2233 45.98 90.2633 47.17 92.19 48.53C93.55 49.4367 94.7967 50.4567 95.93 51.59C97.1767 52.61 98.4233 53.7433 99.67 54.99C100.917 56.1233 102.107 57.2567 103.24 58.39C104.487 59.41 105.62 60.4867 106.64 61.62C107.66 62.8667 108.453 64.2267 109.02 65.7C109.587 67.06 110.153 68.4767 110.72 69.95C111.4 71.7633 112.023 73.5767 112.59 75.39C113.27 77.2033 113.723 79.0733 113.95 81C114.403 84.8533 114.29 88.8767 113.61 93.07C113.27 95.11 112.76 97.0933 112.08 99.02C111.4 101.06 110.437 102.987 109.19 104.8C108.283 105.933 107.49 107.067 106.81 108.2C103.07 114.547 98.1967 119.987 92.19 124.52C90.2633 125.993 88.3367 127.24 86.41 128.26C84.4833 129.28 82.5 130.243 80.46 131.15C78.5333 132.057 76.6067 132.85 74.68 133.53C72.7533 134.21 70.7133 134.663 68.56 134.89C63.8 135.57 59.04 135.74 54.28 135.4C49.6333 135.173 44.9867 134.437 40.34 133.19C36.3733 132.283 32.9167 130.527 29.97 127.92C27.8167 126.107 26.1167 124.803 24.87 124.01C23.7367 123.217 22.7167 122.423 21.81 121.63C20.79 120.95 19.77 120.043 18.75 118.91C17.6167 117.89 16.0867 116.247 14.16 113.98C13.7067 113.527 13.31 113.017 12.97 112.45C12.63 111.997 12.2333 111.543 11.78 111.09C9.62667 108.597 8.04 105.763 7.02 102.59C6.56667 101.57 6.11333 100.72 5.66 100.04C4.52667 98.5667 3.79 97.0367 3.45 95.45C3.11 93.75 2.77 92.1067 2.43 90.52ZM100.703 21.16C100.703 20.82 100.647 20.48 100.533 20.14C100.533 19.6867 100.59 19.3467 100.703 19.12C101.043 17.6467 101.157 16.06 101.043 14.36C100.93 12.66 100.817 11.0733 100.703 9.59999V8.24C100.59 7.10666 100.703 5.85999 101.043 4.5C101.497 3.14 102.347 2.29 103.593 1.95C104.613 1.61 105.633 1.55333 106.653 1.77999C107.787 1.89333 108.863 2.00667 109.883 2.12C111.13 2.12 112.433 2.17666 113.793 2.29C115.153 2.29 116.457 2.29 117.703 2.29H139.973C143.147 2.29 146.32 2.34666 149.493 2.45999C152.667 2.45999 155.84 2.34666 159.013 2.12C160.6 2.00667 162.13 2.00667 163.603 2.12C165.19 2.23333 166.777 2.34666 168.363 2.45999C169.383 2.45999 170.63 2.40333 172.103 2.29C173.69 2.06333 174.88 2.40333 175.673 3.30999C176.24 3.99 176.523 4.84 176.523 5.85999C176.637 6.76666 176.75 7.67333 176.863 8.58C176.977 9.82666 176.977 11.3 176.863 13C176.75 14.7 176.693 16.23 176.693 17.59L176.353 21.5C176.24 22.6333 175.73 23.5967 174.823 24.39C174.03 25.07 173.067 25.4667 171.933 25.58L162.753 26.26C161.62 26.3733 160.487 26.43 159.353 26.43C158.22 26.43 157.087 26.43 155.953 26.43C154.933 26.3167 154.027 26.3733 153.233 26.6C152.553 26.8267 152.1 27.5067 151.873 28.64C151.647 29.32 151.59 30 151.703 30.68C151.93 31.2467 152.043 31.87 152.043 32.55C152.043 33.7967 151.93 34.9867 151.703 36.12C151.59 37.14 151.59 38.2733 151.703 39.52C151.93 42.1267 151.987 44.5633 151.873 46.83C151.873 49.0967 151.76 51.5333 151.533 54.14C151.42 56.18 151.363 58.22 151.363 60.26C151.363 62.3 151.363 64.2833 151.363 66.21V77.43C151.363 79.0167 151.42 80.66 151.533 82.36C151.647 84.06 151.703 85.7033 151.703 87.29C151.703 88.1967 151.647 89.16 151.533 90.18C151.533 91.2 151.477 92.1633 151.363 93.07C151.25 94.2033 150.627 95.2233 149.493 96.13C148.473 97.0367 147.34 97.6033 146.093 97.83H143.203C141.39 97.9433 139.577 98 137.763 98C136.063 98.1133 134.307 98.17 132.493 98.17C131.247 98.17 130.057 98 128.923 97.66C127.11 97.2067 126.147 96.0733 126.033 94.26C126.033 91.6533 125.92 89.16 125.693 86.78C125.58 84.4 125.637 81.9067 125.863 79.3C126.09 75.3333 126.147 71.31 126.033 67.23C126.033 63.15 126.09 59.1267 126.203 55.16V33.06C126.203 32.1533 126.26 31.19 126.373 30.17C126.6 29.0367 126.543 28.0733 126.203 27.28C125.977 26.7133 125.523 26.4867 124.843 26.6C124.277 26.6 123.71 26.6 123.143 26.6C120.083 26.6 117.023 26.5433 113.963 26.43C110.903 26.2033 107.843 25.9767 104.783 25.75C103.65 25.5233 102.687 25.0133 101.893 24.22C101.213 23.3133 100.817 22.2933 100.703 21.16ZM254.347 75.39C255.481 75.5033 256.387 75.9567 257.067 76.75C257.861 77.5433 258.314 78.5633 258.427 79.81C258.654 81.51 258.711 83.21 258.597 84.91C258.597 86.61 258.597 88.31 258.597 90.01C258.597 90.9167 258.484 91.7667 258.257 92.56C258.144 93.24 258.031 93.9767 257.917 94.77C257.691 96.3567 256.897 97.32 255.537 97.66C254.971 97.8867 254.347 98 253.667 98C253.101 98.1133 252.534 98.2267 251.967 98.34L230.547 99.02C226.354 98.7933 222.387 98.6233 218.647 98.51C215.021 98.51 211.394 98.4533 207.767 98.34C206.181 98.34 204.537 98.2833 202.837 98.17C201.251 98.17 199.664 98.1133 198.077 98C197.511 98 196.887 98.0567 196.207 98.17C195.641 98.2833 195.074 98.4533 194.507 98.68C193.261 99.02 191.957 98.85 190.597 98.17C189.237 97.6033 188.217 96.6967 187.537 95.45C186.744 94.09 186.347 92.6733 186.347 91.2C186.461 88.9333 186.574 86.7233 186.687 84.57C186.801 82.4167 186.971 80.2067 187.197 77.94C187.424 75.56 187.594 73.18 187.707 70.8C187.934 68.3067 188.047 65.87 188.047 63.49C188.047 60.5433 187.934 57.5967 187.707 54.65C187.594 51.59 187.481 48.5867 187.367 45.64C187.254 41.3333 187.197 37.14 187.197 33.06C187.311 28.8667 187.367 24.6167 187.367 20.31C187.367 19.7433 187.311 19.2333 187.197 18.78C187.084 18.2133 187.084 17.6467 187.197 17.08C187.311 15.6067 187.424 14.19 187.537 12.83C187.651 11.47 187.821 10.0533 188.047 8.58C188.161 7.56 188.727 6.59666 189.747 5.68999C190.767 4.78333 191.787 4.27333 192.807 4.15999C194.394 3.93333 195.924 3.76333 197.397 3.65C198.984 3.53666 200.571 3.42332 202.157 3.30999C203.744 3.30999 205.331 3.25333 206.917 3.14C208.617 3.02666 210.261 3.02666 211.847 3.14C215.927 3.36666 220.064 3.36666 224.257 3.14C226.864 3.14 229.414 3.25333 231.907 3.47999C234.514 3.59333 237.121 3.65 239.727 3.65C240.861 3.76333 241.937 3.76333 242.957 3.65C243.977 3.42333 245.054 3.30999 246.187 3.30999C247.434 3.30999 248.737 3.30999 250.097 3.30999C251.457 3.30999 252.761 3.42333 254.007 3.65C255.254 3.76333 256.274 4.33 257.067 5.35C257.861 6.25667 258.314 7.33333 258.427 8.58C258.541 11.64 258.541 14.7 258.427 17.76C258.427 18.3267 258.371 18.95 258.257 19.63C258.257 20.31 258.201 20.9333 258.087 21.5C257.861 23.4267 257.351 24.73 256.557 25.41C255.764 26.09 254.461 26.5433 252.647 26.77C250.947 26.9967 249.191 27.11 247.377 27.11C245.677 26.9967 243.921 26.9967 242.107 27.11C239.727 27.2233 237.291 27.3933 234.797 27.62C232.417 27.7333 230.037 27.8467 227.657 27.96C227.204 28.0733 226.807 28.13 226.467 28.13C226.127 28.0167 225.787 27.96 225.447 27.96L215.757 27.62C214.511 27.62 213.491 28.3 212.697 29.66C212.017 31.02 211.564 32.4367 211.337 33.91C211.111 35.27 210.997 36.7433 210.997 38.33C211.224 40.1433 212.301 41.22 214.227 41.56C215.021 41.7867 215.814 41.9 216.607 41.9C217.401 41.9 218.194 41.9 218.987 41.9C220.574 41.9 222.161 41.9 223.747 41.9C225.334 41.7867 226.921 41.6733 228.507 41.56L237.347 41.22C238.141 41.1067 238.877 40.9933 239.557 40.88C240.237 40.7667 240.917 40.71 241.597 40.71C244.657 40.9367 246.357 42.5233 246.697 45.47C246.811 46.3767 246.867 47.34 246.867 48.36C246.981 49.2667 247.037 50.1733 247.037 51.08C247.151 51.6467 247.207 52.2133 247.207 52.78C247.321 53.3467 247.377 53.9133 247.377 54.48C247.377 55.0467 247.321 55.6133 247.207 56.18C247.207 56.6333 247.151 57.1433 247.037 57.71C246.924 58.5033 246.244 59.1267 244.997 59.58C243.411 60.1467 241.824 60.4867 240.237 60.6C238.651 60.7133 237.064 60.8267 235.477 60.94C233.097 61.1667 230.661 61.28 228.167 61.28C225.787 61.28 223.351 61.3367 220.857 61.45L215.417 61.96C214.511 62.0733 213.717 62.5267 213.037 63.32C212.471 64 212.131 64.7933 212.017 65.7C212.017 66.6067 211.961 67.4567 211.847 68.25C211.734 68.93 211.621 69.7233 211.507 70.63C211.281 71.8767 211.564 73.2367 212.357 74.71C212.584 74.9367 212.867 75.1067 213.207 75.22C213.547 75.3333 213.831 75.4467 214.057 75.56C214.964 75.7867 215.757 75.7867 216.437 75.56C218.251 75.22 220.007 75.1633 221.707 75.39C223.407 75.5033 225.107 75.6167 226.807 75.73C227.601 75.8433 228.337 75.9567 229.017 76.07C229.697 76.07 230.434 76.07 231.227 76.07C233.154 76.07 235.081 76.07 237.007 76.07C238.934 76.07 240.861 76.0133 242.787 75.9C244.034 75.9 245.224 75.9 246.357 75.9C247.491 75.7867 248.681 75.6733 249.927 75.56C250.721 75.4467 251.457 75.39 252.137 75.39C252.931 75.2767 253.667 75.2767 254.347 75.39ZM361.017 92.05C361.357 93.6367 361.074 94.94 360.167 95.96C359.374 96.98 358.184 97.49 356.597 97.49C355.69 97.49 354.784 97.4333 353.877 97.32C352.97 97.2067 352.064 97.0933 351.157 96.98L342.827 96.47C341.58 96.47 340.277 96.3 338.917 95.96C337.67 95.3933 336.764 94.6 336.197 93.58C335.63 92.56 335.12 91.4267 334.667 90.18C334.1 89.0467 333.59 87.97 333.137 86.95C332.684 85.93 332.23 84.8533 331.777 83.72C331.097 82.2467 329.907 81.51 328.207 81.51C327.64 81.3967 327.13 81.34 326.677 81.34C326.337 81.34 325.884 81.34 325.317 81.34C323.39 81.34 321.52 81.34 319.707 81.34C317.894 81.2267 316.08 81.17 314.267 81.17C312.114 81.17 310.017 81.2267 307.977 81.34C305.937 81.34 303.897 81.34 301.857 81.34C300.157 81.4533 298.854 82.3033 297.947 83.89C297.38 84.7967 296.927 85.7033 296.587 86.61C296.247 87.5167 295.85 88.4233 295.397 89.33C295.17 89.67 295.057 90.1233 295.057 90.69C294.83 94.9967 292.564 97.2633 288.257 97.49C287.35 97.49 286.387 97.5467 285.367 97.66C284.46 97.66 283.554 97.7167 282.647 97.83C281.287 97.83 279.927 97.83 278.567 97.83C277.207 97.83 275.847 97.7733 274.487 97.66C272.787 97.66 271.2 97.2067 269.727 96.3C268.14 95.28 267.8 94.0333 268.707 92.56C269.274 91.7667 269.727 91.03 270.067 90.35C270.407 89.5567 270.577 88.7067 270.577 87.8V87.29C271.824 85.8167 272.617 84.23 272.957 82.53C273.41 80.7167 274.034 78.96 274.827 77.26C276.074 74.4267 277.264 71.5933 278.397 68.76C279.53 65.9267 280.607 63.0933 281.627 60.26C282.76 57.0867 283.837 53.97 284.857 50.91C285.877 47.7367 286.897 44.5633 287.917 41.39C288.597 39.35 289.277 37.31 289.957 35.27C290.637 33.23 291.487 31.2467 292.507 29.32C293.867 26.7133 295.057 24.05 296.077 21.33C297.21 18.4967 298.287 15.72 299.307 13C299.874 11.4133 300.554 9.88333 301.347 8.41C302.14 6.82333 303.217 5.40666 304.577 4.15999C305.37 3.59333 306.107 3.19666 306.787 2.97C307.58 2.74333 308.374 2.51666 309.167 2.29C309.96 2.17666 310.697 2.12 311.377 2.12C312.057 2.12 312.737 2.12 313.417 2.12C314.55 2.12 315.627 2.12 316.647 2.12C317.667 2.12 318.687 2.06333 319.707 1.95C322.88 1.49667 325.147 2.68666 326.507 5.51999C327.3 7.10666 327.98 8.69333 328.547 10.28C329.227 11.7533 329.85 13.2833 330.417 14.87C332.004 18.7233 333.477 22.5767 334.837 26.43C336.31 30.2833 337.784 34.1367 339.257 37.99C339.937 39.69 340.56 41.39 341.127 43.09C341.694 44.79 342.26 46.4333 342.827 48.02C343.734 50.2867 344.64 52.5533 345.547 54.82C346.454 57.0867 347.36 59.3533 348.267 61.62L359.487 87.97C360.167 89.33 360.677 90.69 361.017 92.05ZM307.637 59.41C307.977 59.41 308.317 59.3533 308.657 59.24C309.11 59.0133 309.507 59.0133 309.847 59.24C310.754 59.58 311.66 59.75 312.567 59.75C313.474 59.6367 314.38 59.6367 315.287 59.75C316.194 59.8633 317.1 59.92 318.007 59.92C319.027 59.8067 319.99 59.6933 320.897 59.58C321.577 59.4667 321.974 59.2967 322.087 59.07C322.314 58.8433 322.314 58.3333 322.087 57.54C321.974 56.9733 321.804 56.4067 321.577 55.84C321.464 55.16 321.294 54.5367 321.067 53.97L315.457 37.31L314.777 36.12L307.637 59.41ZM369.827 92.56C369.26 91.6533 369.033 90.8033 369.147 90.01C369.26 89.1033 369.317 88.1967 369.317 87.29C369.203 83.3233 369.09 79.4133 368.977 75.56C368.977 71.5933 369.033 67.6267 369.147 63.66C369.147 60.3733 369.203 57.0867 369.317 53.8C369.43 50.5133 369.6 47.2267 369.827 43.94C369.827 42.6933 369.77 41.5033 369.657 40.37C369.657 39.1233 369.657 37.8767 369.657 36.63C369.657 35.7233 369.657 34.8733 369.657 34.08C369.77 33.1733 369.827 32.2667 369.827 31.36C369.827 30.1133 369.77 28.9233 369.657 27.79C369.657 26.5433 369.657 25.2967 369.657 24.05V9.59999C369.657 8.92 369.657 8.24 369.657 7.56C369.657 6.87999 369.713 6.19999 369.827 5.51999C369.94 4.15999 370.847 3.36666 372.547 3.14L382.917 2.62999C384.277 2.51666 385.637 2.45999 386.997 2.45999C388.47 2.45999 389.887 2.45999 391.247 2.45999C392.267 2.45999 393.003 2.63 393.457 2.97C393.91 3.30999 394.307 3.93333 394.647 4.83999C394.76 5.18 394.873 5.51999 394.987 5.85999C395.1 6.19999 395.157 6.54 395.157 6.88C395.043 8.58 395.043 10.28 395.157 11.98C395.27 13.68 395.383 15.3233 395.497 16.91C395.497 19.8567 395.44 22.86 395.327 25.92C395.213 28.8667 395.1 31.8133 394.987 34.76C394.873 37.0267 394.76 39.2933 394.647 41.56C394.647 43.8267 394.647 46.0933 394.647 48.36C394.647 49.38 394.703 50.4 394.817 51.42C394.93 52.44 394.987 53.46 394.987 54.48C394.987 56.52 394.987 58.8433 394.987 61.45C394.987 64.0567 395.043 66.4367 395.157 68.59C395.157 69.3833 395.213 70.1767 395.327 70.97C395.44 71.7633 395.553 72.6133 395.667 73.52C395.78 74.88 396.517 75.56 397.877 75.56C402.637 75.7867 407.397 75.6167 412.157 75.05C413.743 74.8233 415.33 74.8233 416.917 75.05C418.617 75.2767 420.26 75.39 421.847 75.39C423.093 75.39 424.68 75.3333 426.607 75.22C428.647 74.9933 430.347 74.9933 431.707 75.22C432.727 75.4467 433.237 75.8433 433.237 76.41C433.237 76.8633 433.293 77.7133 433.407 78.96C433.52 79.64 433.577 80.32 433.577 81C433.69 81.68 433.747 82.36 433.747 83.04C433.747 84.2867 433.69 85.3067 433.577 86.1C433.577 86.8933 433.633 87.9133 433.747 89.16C433.747 90.2933 433.69 91.4267 433.577 92.56C433.463 93.58 432.953 94.5433 432.047 95.45C431.48 96.2433 430.743 96.6967 429.837 96.81L423.207 97.49H418.447C416.067 97.49 413.687 97.5467 411.307 97.66C408.927 97.66 406.603 97.6033 404.337 97.49C401.277 97.2633 398.16 97.2067 394.987 97.32C391.927 97.32 388.923 97.4333 385.977 97.66C383.937 97.8867 381.897 97.9433 379.857 97.83C377.817 97.7167 375.777 97.66 373.737 97.66C371.13 97.66 369.827 96.2433 369.827 93.41C369.827 92.8433 369.827 92.56 369.827 92.56Z" fill="#036147"/>
</svg>
