<svg width="37" height="37" viewBox="0 0 37 37" fill="none" xmlns="http://www.w3.org/2000/svg">
<g clip-path="url(#clip0_15_651)">
<path d="M30.2496 24.3314C29.3455 24.3314 28.4866 24.6855 27.8387 25.3259C27.1907 25.9738 26.8291 26.8176 26.8291 27.7217C26.8291 28.6258 27.1832 29.4696 27.8387 30.1176C28.4941 30.758 29.3455 31.1121 30.2496 31.1121C32.103 31.1121 33.6098 29.5902 33.6098 27.7217C33.6098 25.8532 32.103 24.3314 30.2496 24.3314ZM30.2496 29.6052C29.2099 29.6052 28.3359 28.7463 28.3359 27.7217C28.3359 26.6971 29.2099 25.8382 30.2496 25.8382C31.2742 25.8382 32.103 26.682 32.103 27.7217C32.103 28.7614 31.2742 29.6052 30.2496 29.6052Z" fill="#009D65"/>
<path d="M31.1232 13.0377C30.9876 12.9097 30.8068 12.8419 30.6184 12.8419H26.7534C26.339 12.8419 26 13.1809 26 13.5953V19.7732C26 20.1876 26.339 20.5266 26.7534 20.5266H32.8862C33.3005 20.5266 33.6396 20.1876 33.6396 19.7732V15.637C33.6396 15.4261 33.5492 15.2226 33.391 15.0795L31.1232 13.0377ZM32.1328 19.0198H27.5068V14.3411H30.3246L32.1328 15.9685V19.0198Z" fill="#009D65"/>
<path d="M11.8511 24.3314C10.9471 24.3314 10.0882 24.6855 9.44023 25.3259C8.7923 25.9738 8.43066 26.8176 8.43066 27.7217C8.43066 28.6258 8.78477 29.4696 9.44023 30.1176C10.0957 30.758 10.9471 31.1121 11.8511 31.1121C13.7045 31.1121 15.2114 29.5902 15.2114 27.7217C15.2114 25.8532 13.7045 24.3314 11.8511 24.3314ZM11.8511 29.6052C10.8114 29.6052 9.93748 28.7463 9.93748 27.7217C9.93748 26.6971 10.8114 25.8382 11.8511 25.8382C12.8758 25.8382 13.7045 26.682 13.7045 27.7217C13.7045 28.7614 12.8758 29.6052 11.8511 29.6052Z" fill="#009D65"/>
<path d="M6.82586 25.2581H5.31151V23.254C5.31151 22.8396 4.97247 22.5006 4.5581 22.5006C4.14372 22.5006 3.80469 22.8396 3.80469 23.254V26.0115C3.80469 26.4259 4.14372 26.7649 4.5581 26.7649H6.82586C7.24024 26.7649 7.57927 26.4259 7.57927 26.0115C7.57927 25.5971 7.24024 25.2581 6.82586 25.2581Z" fill="#009D65"/>
<path d="M10.6457 21.152C10.6457 20.7376 10.3067 20.3986 9.89228 20.3986H0.753411C0.339035 20.3986 0 20.7376 0 21.152C0 21.5663 0.339035 21.9054 0.753411 21.9054H9.89228C10.3067 21.9054 10.6457 21.5739 10.6457 21.152Z" fill="#009D65"/>
<path d="M2.28262 18.4322L11.4215 18.4849C11.8359 18.4849 12.1749 18.1534 12.1824 17.739C12.19 17.3171 11.8509 16.9781 11.4366 16.9781L2.29769 16.9254C2.29016 16.9254 2.29016 16.9254 2.29016 16.9254C1.87578 16.9254 1.53674 17.2569 1.53674 17.6712C1.52921 18.0931 1.86825 18.4322 2.28262 18.4322Z" fill="#009D65"/>
<path d="M3.81982 15.0117H12.9587C13.3731 15.0117 13.7121 14.6727 13.7121 14.2583C13.7121 13.8439 13.3731 13.5049 12.9587 13.5049H3.81982C3.40544 13.5049 3.06641 13.8439 3.06641 14.2583C3.06641 14.6727 3.40544 15.0117 3.81982 15.0117Z" fill="#009D65"/>
<path d="M36.7212 13.9946L31.3268 9.52685C31.1912 9.41384 31.0254 9.35357 30.8446 9.35357H24.5009V6.64129C24.5009 6.22691 24.1618 5.88788 23.7475 5.88788H4.5581C4.14372 5.88788 3.80469 6.22691 3.80469 6.64129V12.1563C3.80469 12.5706 4.14372 12.9097 4.5581 12.9097C4.97247 12.9097 5.31151 12.5706 5.31151 12.1563V7.3947H23.0016V25.2581H16.8236C16.4092 25.2581 16.0702 25.5971 16.0702 26.0115C16.0702 26.4259 16.4092 26.7649 16.8236 26.7649H26.0228C26.4371 26.7649 26.7762 26.4259 26.7762 26.0115C26.7762 25.5971 26.4371 25.2581 26.0228 25.2581H24.5084V10.8604H30.5809L35.4931 14.9288L35.4404 25.243H34.6569C34.2425 25.243 33.9034 25.582 33.9034 25.9964C33.9034 26.4108 34.2425 26.7498 34.6569 26.7498H36.1863C36.6007 26.7498 36.9397 26.4183 36.9397 26.0039L37 14.5822C36.9924 14.3562 36.8945 14.1377 36.7212 13.9946Z" fill="#009D65"/>
</g>
<defs>
<clipPath id="clip0_15_651">
<rect width="37" height="37" fill="white"/>
</clipPath>
</defs>
</svg>
